<svg width="132" height="122" viewBox="0 0 132 122" fill="none" xmlns="http://www.w3.org/2000/svg">
<g clip-path="url(#clip0_298_374)">
<path d="M125.937 35.1636C127.118 37.4893 127.488 39.5478 127.581 42.1275C127.702 45.4379 127.613 48.8241 127.724 52.1924C128.276 69.0474 123.126 82.249 110.922 93.7619C108.289 96.2436 105.362 98.409 102.662 100.81C96.7228 106.104 92.6638 112.573 84.537 114.805C83.0133 115.224 81.4405 115.375 79.9256 115.897C78.3707 116.427 77.0875 117.385 75.5994 118.026C73.5231 118.922 71.4246 119.301 69.2236 119.755C60.7315 121.502 56.2003 122.036 47.5789 120.178C41.2967 118.824 34.1947 117.318 28.0684 115.522C26.7808 115.144 25.1055 114.685 23.9159 114.123C19.5407 112.061 21.9199 108.394 22.7753 104.976C24.2234 99.1753 25.2927 93.1025 25.9699 87.1589C26.3442 83.8708 26.3664 80.7386 27.0704 77.4504C27.9125 73.5163 29.61 70.3172 31.664 66.9133C28.1664 64.5073 24.21 62.4221 20.8194 59.8959C15.5664 55.9795 10.5005 48.4142 6.63761 43.0097C5.00246 40.7196 3.65245 38.22 1.88363 36.0547C0.546986 34.4195 -0.932229 34.0364 0.756394 31.6304C3.1668 28.1908 7.88515 25.0942 10.9639 22.1759C12.5857 20.6388 13.949 18.6427 15.6109 17.217C16.8005 16.1967 18.2085 15.4526 19.3669 14.3699C24.1031 9.94118 26.8253 6.96938 33.2457 4.68372C37.5808 3.14213 41.3947 3.14659 45.8101 2.38916C50.4438 1.59608 55.0285 -0.244025 59.8136 0.0366693C63.8325 0.272809 67.5751 1.93915 71.4469 2.81243C76.1162 3.86837 79.44 4.0555 84.0068 6.01145C88.2529 7.82928 94.6109 11.113 98.4515 13.6303C99.5119 14.3254 101.263 16.0764 102.256 16.4283C102.969 16.6823 103.963 16.7001 104.769 16.9184C106.917 17.5021 108.784 18.4689 110.477 19.917C111.466 20.7635 114.87 24.8135 115.569 25.0319C117.508 25.6289 121.687 24.0338 123.282 22.8219C124.877 21.6101 124.881 20.3759 127.096 21.913C128.851 23.1338 130.085 25.2591 130.78 27.2329C130.941 27.6873 131.645 29.9551 131.631 30.2626C131.587 31.3185 129.506 32.6997 128.686 33.3235C127.866 33.9472 126.873 34.6378 125.946 35.1636H125.937ZM97.5648 16.2368C96.9143 15.5328 96.0812 15.0471 95.2658 14.5615C90.1955 11.5273 82.5588 7.55305 76.8558 6.2565C74.3608 5.69066 71.8033 5.40105 69.3172 4.79066C66.127 4.00649 62.9993 2.61639 59.6755 2.4248C55.2468 2.17529 50.9918 3.88174 46.7146 4.63471C41.2967 5.59264 37.0997 5.4768 31.8778 7.80701C25.8719 10.4847 22.0892 14.9892 17.1169 19.0125L10.2154 25.6913L15.3659 22.2115C21.4966 17.5645 27.8011 12.1422 35.0902 9.36642C38.1823 8.19018 40.3477 8.43523 43.4398 7.95849C45.6809 7.61542 47.6859 6.55502 50.0473 6.79562C51.2235 6.91591 52.471 7.52631 53.6695 7.6778C54.5116 7.78473 58.2364 7.50404 58.4726 7.82929C58.7532 8.21246 57.822 8.49315 57.5636 8.57335C54.0171 9.63821 51.4864 7.76691 48.2829 8.14562C46.7012 8.33275 44.9146 9.29513 43.2705 9.58474C39.4967 10.2531 37.7635 9.86098 33.9808 11.5541C25.1813 15.4927 17.2194 24.0427 8.70495 29.2022C6.58415 30.4898 3.88859 31.3497 2.44502 33.4215C2.52076 34.3482 9.43565 35.6804 10.5228 35.97C15.0585 37.1908 20.0753 38.9552 24.7224 39.4809C26.8699 39.7215 29.2135 39.4631 31.2897 39.8151C32.3947 40.0022 33.4239 40.5458 34.5021 40.8042C37.8705 41.6151 44.6294 41.7042 48.0958 41.2809C51.5532 40.8577 51.4463 40.0022 53.7408 37.9215C54.5072 37.2265 55.4295 36.6562 56.1423 35.8987C53.2908 35.7428 50.475 36.2775 47.6636 36.4958C46.9151 36.5537 42.8116 36.87 42.4863 36.6473C42.473 36.5626 42.5754 36.4468 42.6334 36.42C43.2928 36.1081 45.9571 36.1482 46.9106 36.0458C49.5482 35.7606 52.2082 35.2482 54.8592 35.1413C55.4562 35.119 56.5567 35.3418 56.931 35.275C57.4255 35.1859 59.925 33.2032 60.5978 32.7755C61.9434 31.9111 63.3691 31.1492 64.6968 30.267C64.8706 30.1512 65.0845 30.3071 64.9954 29.8972C63.6231 29.8972 62.2374 29.9507 60.8696 30.0487C59.5018 30.1467 57.9379 30.4497 56.521 30.5032C53.5314 30.6146 50.7022 29.9641 47.6992 30.3873C46.0507 30.619 44.3799 31.2829 42.7136 31.4032C38.7482 31.6928 34.4442 30.3205 30.4075 31.1047H28.5273C30.4254 30.1245 32.4927 29.4294 34.6224 29.1665C37.3982 28.8235 40.0046 29.3626 42.7046 29.1443C44.2551 29.0195 45.9482 28.4403 47.5299 28.2665C50.5463 27.9324 53.5136 28.5428 56.521 28.4046C58.7577 28.3022 61.0211 27.7274 63.2755 27.7942C64.7191 27.8343 66.2429 28.3155 67.6954 28.2487C67.731 28.0259 67.4147 28.0616 67.2498 28.0259C66.0869 27.7631 64.884 27.6517 63.73 27.3398L61.9924 26.7517C62.3622 26.7428 62.7275 26.7383 63.0973 26.7695C64.4607 26.8853 67.2632 27.7942 68.3548 27.6472C69.4464 27.5002 71.8211 25.6111 72.7969 24.9517C70.9657 24.9071 68.2612 24.5596 66.635 23.6774C66.4256 23.566 66.2652 23.6908 66.3409 23.3031L73.6033 24.613L79.3598 21.0932L79.5469 20.7501C78.1345 20.3402 76.7177 19.9036 75.2518 19.7165C72.8815 19.4135 70.4533 19.6095 68.0696 19.3957C63.4137 18.9813 59.2166 17.4175 54.4136 17.7472C52.4621 17.8808 50.5151 18.518 48.5547 18.6427C46.3759 18.7853 43.9878 18.6204 41.8046 18.7942C33.8828 19.4358 26.7763 23.0759 19.4426 25.7002C18.5203 26.0299 17.4867 26.4309 16.5154 26.5244C17.8208 25.2992 19.3268 24.2432 20.9174 23.419C27.3333 20.0818 35.2729 17.0343 42.5532 16.6868C44.1972 16.6066 45.868 16.7892 47.5121 16.6912C50.0918 16.5353 52.6091 15.6531 55.171 15.4927C59.4572 15.2254 63.8369 16.8873 68.0785 17.2927C70.5068 17.5244 72.984 17.3283 75.4122 17.6135C77.8405 17.8986 80.0994 18.7229 82.4118 19.5427C82.0732 19.0749 81.3336 18.8967 80.7989 18.6828C77.5331 17.3551 73.6211 16.5576 70.1058 16.3927C69.8607 16.21 70.1058 16.1209 70.3286 16.0942C71.7053 15.9204 74.1157 16.3437 75.537 16.5932C78.2014 17.061 80.7989 17.8541 83.2761 18.9189C83.5658 18.9991 83.9667 18.9947 84.0648 18.6516C80.4113 17.3551 76.74 16.0986 72.9573 15.1942C72.9305 14.9268 73.4652 15.0338 73.6301 15.0471C76.7845 15.3278 81.0974 16.8293 84.1093 17.9298C84.3989 18.0368 84.6262 18.2952 84.9024 18.3442C85.8336 18.5046 86.8762 17.7383 87.8207 17.7472C87.8742 17.3863 87.4554 17.2526 87.2059 17.0877C85.5395 15.9471 83.2494 15.0293 81.3291 14.4056C80.7677 14.2229 77.0162 13.3362 77.0162 13.0199C77.1276 12.8818 77.2033 12.8105 77.3905 12.7838C77.9296 12.7169 79.8499 13.2605 80.5004 13.4343C82.3494 13.9377 84.2875 14.7041 85.9717 15.6174C86.493 15.9026 88.2529 17.1902 88.5336 17.2704C88.9168 17.3774 89.2554 17.1457 89.6252 17.1457C82.7058 11.7367 73.9241 11.2555 65.6681 9.36197C64.7681 8.96543 59.68 10.1684 59.4572 9.2684C59.3726 8.93424 60.58 8.48424 60.8384 8.40404C64.5765 7.20998 74.5835 9.60256 78.8207 10.4669C82.7281 11.2689 86.1633 12.2892 89.5539 14.4457C90.1108 14.8021 92.0356 16.4061 92.3252 16.4907C92.6816 16.5976 93.0203 16.3615 93.3811 16.3972C93.4569 16.0452 93.3321 16.1566 93.1851 16.063C90.5787 14.3744 86.3816 11.9506 83.5078 10.8857C79.3197 9.33078 74.5969 9.36642 70.2305 8.55553L60.6602 6.4971C63.6899 6.39017 66.6082 7.35701 69.6112 7.82929C75.5014 8.75602 81.8014 8.88078 87.3306 11.2734C90.8103 12.7793 93.9069 15.1853 97.5871 16.2501L97.5648 16.2368ZM95.7292 18.8343C89.3178 19.2709 83.6103 21.7526 78.2103 25.0319C73.3449 27.9903 68.1944 31.2829 63.4404 34.4284C49.4235 43.6958 41.3234 56.1533 32.8046 70.2861C29.0664 76.4836 29.4452 80.1371 28.6655 87.0074C27.9348 93.4278 26.7541 100.222 25.1724 106.478C24.9719 107.262 23.7823 110.194 24.3125 110.728C24.562 110.929 24.8382 110.929 25.1323 110.956C26.6739 111.098 28.9328 110.679 30.5368 110.644C34.9432 110.541 39.6705 110.693 44.0279 111.272C48.6928 111.891 50.8181 112.907 55.679 111.624C65.3963 109.058 76.1741 102.771 84.6351 97.353C88.1727 95.0852 91.3405 92.3495 94.7178 89.8723C98.3445 87.2168 102.363 84.9936 105.513 81.7589C112.999 70.5935 126.236 55.5696 125.175 41.223C124.618 33.6576 118.314 31.2472 113.609 26.823C111.693 25.0185 110.174 22.7284 107.955 21.2224C104.627 18.959 99.6366 18.5714 95.7203 18.8387L95.7292 18.8343ZM121.727 28.9928C121.682 28.672 121.981 28.5027 122.19 28.3289C122.832 27.7898 123.767 27.3665 124.48 26.8631C125.322 26.2705 126.089 25.5442 126.98 25.014C126.539 24.7021 126.075 23.7309 125.492 23.9625C124.953 24.1764 123.964 25.0408 123.309 25.3927C121.838 26.1769 120.212 26.7071 118.581 27.0457L122.23 29.866L127.296 25.9274C127.684 25.6868 127.038 25.1076 126.842 25.2457C126.833 26.364 122.146 29.3626 121.736 28.9972L121.727 28.9928ZM124.752 33.025C124.895 33.1096 125.037 33.025 125.175 32.967C125.63 32.7755 128.57 30.7126 128.869 30.3561C129.007 30.1868 129.132 30.071 129.083 29.8215L128.633 29.6655L124.458 32.517L124.752 33.025ZM48.0334 43.5532C43.7695 44.1458 39.0467 44.3018 34.8274 43.3305C33.3749 42.9963 32.016 42.2923 30.5323 42.0696C29.0486 41.8468 27.6184 42.0161 26.1971 41.9003C18.7164 41.2899 11.9797 38.0596 4.9579 35.7473C8.90099 38.5275 13.5035 40.1804 17.402 43.0364C20.3114 45.1661 22.2451 46.6988 25.5199 48.4275C29.9798 50.7845 34.6536 52.8518 39.5858 54.0191L40.3789 53.3018C37.2912 52.8696 33.9407 52.0587 31.5214 50.0003C34.5422 51.1231 37.5808 52.5444 40.8779 52.5577L41.1274 52.1033C40.214 52.1345 39.2294 52.0676 38.4274 51.5775L39.0244 51.4171L40.8289 51.5018L39.8219 51.2389L39.1804 50.7577C40.0403 50.7132 40.9225 50.8335 41.5284 51.4929L41.7333 51.4394L48.0378 43.5488L48.0334 43.5532ZM37.2021 58.0914C37.3937 57.5746 37.9952 57.08 38.2046 56.6122C38.2982 56.4028 38.316 56.385 38.1244 56.238C33.1833 54.781 28.2689 52.5266 23.7689 50.0315C19.0906 47.4384 15.3703 43.4597 10.6119 40.9735L6.00939 38.4473C7.54653 41.1829 9.91238 43.3349 11.6367 45.9547C11.9396 46.2622 11.9352 46.0438 11.7926 45.8032C10.9995 44.4488 9.94357 43.2013 9.16387 41.8245C9.47129 41.7265 9.99704 42.2344 10.2154 42.4215C12.7995 44.627 14.8045 47.8884 17.1124 50.3835C19.006 52.433 21.2872 54.1216 23.2699 56.082C22.9803 56.238 22.5525 56.4607 22.2184 56.3894C21.706 56.2825 19.3535 54.6251 18.8456 54.2018C16.707 52.4152 14.9337 49.8755 13.1381 47.7503C12.902 47.884 13.1872 48.0889 13.2718 48.2181C15.5842 51.7647 18.6362 55.3825 22.0223 57.931C24.5842 59.8603 28.2021 62.4132 30.9377 64.0261C31.5481 64.387 32.2076 64.6588 32.8313 64.9974C33.1076 65.0241 33.4105 64.4895 33.268 64.2623C33.1432 64.0707 30.4387 62.9167 29.9264 62.6405C28.8526 62.0568 27.712 61.3127 26.7407 60.5731C26.2149 60.1721 23.1451 57.7083 23.7243 57.0622C27.3333 58.8489 30.3452 61.7538 34.3061 62.8632C34.6001 62.7474 34.7249 62.4756 34.6759 62.1637C32.3323 61.2905 29.8773 60.1677 27.8145 58.7419C26.8253 58.0602 25.0788 56.6568 24.3882 55.7122C24.2367 55.5073 24.1075 55.4092 24.1699 55.1063C27.5115 56.434 30.1803 58.7286 33.5887 60.0207C34.5823 60.3949 35.8789 61.2682 36.1774 59.7578C34.7739 59.4548 33.3214 58.8845 31.9803 58.3276C29.962 57.4855 27.0749 56.0998 25.4531 54.6518C25.3372 54.5493 24.7536 54.0592 24.9229 53.9077L37.2021 58.087V58.0914ZM112.66 84.1648C111.778 85.0025 106.364 89.8099 105.594 89.7787C105.375 89.605 105.357 89.5916 105.433 89.3198C105.491 89.1193 107.844 86.6465 108.218 86.25C114.505 79.6336 118.907 73.6722 122.908 65.3717C124.663 61.7316 125.581 57.9711 125.407 53.9122C123.081 59.3612 120.911 64.9662 117.436 69.8049C115.569 72.4024 113.404 74.7994 111.461 77.3391C110.16 79.0411 109.118 80.9614 107.697 82.5832C104.702 85.996 99.8817 88.7584 96.2237 91.5253C83.8955 100.842 70.7073 111 55.2379 114.48C50.3992 115.567 47.873 114.328 43.2839 113.673C40.1606 113.228 36.7031 113.072 33.5486 113.201C33.366 113.21 32.9917 113.09 33.0274 113.348C36.4848 113.798 39.9868 114.061 43.4353 114.573C46.8839 115.086 51.1032 116.489 54.3468 115.834C56.4319 115.416 58.6775 114.101 60.7137 113.348C64.5409 111.931 68.3681 111.174 71.9994 109.173C73.5499 108.322 74.9756 107.209 76.5038 106.326C78.7672 105.016 81.1019 103.831 83.3786 102.544C83.6905 102.504 83.6727 102.615 83.4544 102.771C80.7187 104.7 77.2345 106.13 74.4053 107.984C71.7097 109.793 69.0409 111.802 65.8954 112.756C65.8597 113.018 66.2429 112.907 66.4033 112.889C71.3934 112.261 74.9712 108.777 79.0034 106.424C80.8657 105.337 82.9732 104.549 84.8534 103.421C86.7336 102.294 88.5291 100.704 90.5074 99.5496C90.6678 99.7412 89.3044 101.399 89.0861 101.653C86.141 105.016 82.6747 105.836 79.0034 107.93C75.332 110.024 73.0999 112.466 68.5954 113.883C65.8063 114.761 62.4468 115.683 59.5909 116.284C57.3186 116.766 55.0106 117.118 52.6849 116.962C52.7384 117.247 52.9968 117.211 53.2017 117.269C56.7171 118.231 61.1948 116.414 64.6612 115.656C69.5934 114.582 73.5855 114.302 78.1479 111.731C79.792 110.809 81.2623 109.454 82.8618 108.492C85.5885 106.848 88.7252 106.362 91.394 104.713C93.8846 103.176 95.3059 100.819 97.4891 99.104C98.7767 98.0926 100.39 97.4822 101.615 96.4753C102.377 95.8471 104.034 93.4589 104.542 93.2495C105.01 93.058 104.587 94.3055 104.538 94.4436C103.464 97.4689 100.314 98.3867 98.1619 100.374C96.2861 102.107 95.0475 104.348 92.9 105.916C90.3559 107.77 87.2326 108.247 84.5014 109.677C82.8841 110.523 81.5029 111.882 79.8053 112.787C73.7905 115.99 70.0835 116.146 63.5919 117.135C61.1369 117.51 58.5037 118.521 56.071 118.619C52.5423 118.762 48.6661 116.855 45.2131 116.258C44.5982 116.151 43.9834 115.964 43.3819 116.213C43.4264 116.494 43.6982 116.458 43.8898 116.529C53.5671 120.098 62.3533 119.131 72.084 116.467C75.3009 115.585 77.8717 113.549 81.0217 112.8C82.0821 112.546 83.245 112.484 84.3321 112.208C90.8727 110.541 95.2524 104.393 99.9663 99.9238C104.007 96.0921 108.485 92.7684 112.281 88.6738C117.138 83.4297 121.103 77.29 123.081 70.3529C123.121 69.9163 122.903 70.2281 122.805 70.3796C119.66 75.4143 117.026 80.0257 112.664 84.1782L112.66 84.1648Z" fill="#4B2E22"/>
<path d="M97.564 16.2348C93.8882 15.1699 90.7872 12.764 87.3075 11.258C81.7782 8.86097 75.4782 8.73622 69.5881 7.81394C66.5895 7.34166 63.6668 6.37482 60.637 6.48175L70.2074 8.54018C74.5782 9.35107 79.301 9.31988 83.4847 10.8704C86.354 11.9352 90.5511 14.359 93.162 16.0476C93.309 16.1412 93.4293 16.0298 93.358 16.3818C93.0016 16.3417 92.6629 16.5823 92.3021 16.4754C92.0125 16.3907 90.0877 14.7867 89.5308 14.4303C86.1446 12.2739 82.7094 11.2536 78.7975 10.4516C74.5648 9.58276 64.5534 7.19462 60.8153 8.38869C60.5568 8.47334 59.3494 8.91889 59.4341 9.25305C59.6568 10.1531 64.7405 8.95008 65.645 9.34662C73.901 11.2446 82.6871 11.7214 89.602 17.1303C89.2367 17.1303 88.8936 17.3665 88.5105 17.2551C88.2298 17.1749 86.4698 15.8872 85.9486 15.6021C84.2644 14.6887 82.3263 13.9224 80.4772 13.4189C79.8312 13.2452 77.9109 12.7016 77.3673 12.7684C77.1802 12.7907 77.1044 12.862 76.9931 13.0046C76.9931 13.3209 80.749 14.2075 81.306 14.3902C83.2263 15.0095 85.5164 15.9318 87.1827 17.0724C87.4278 17.2417 87.8466 17.3754 87.7976 17.7318C86.8575 17.7229 85.8104 18.4937 84.8792 18.3288C84.603 18.2798 84.3758 18.017 84.0862 17.9145C81.0743 16.8184 76.7658 15.3125 73.6069 15.0318C73.4465 15.0184 72.9074 14.9115 72.9341 15.1788C76.7124 16.0788 80.3881 17.3353 84.0416 18.6363C83.9436 18.9793 83.5426 18.9838 83.253 18.9036C80.7758 17.8387 78.1738 17.0457 75.5138 16.5778C74.0926 16.3283 71.6821 15.9051 70.3054 16.0788C70.0871 16.1056 69.842 16.1947 70.0826 16.3773C73.598 16.5422 77.5099 17.3397 80.7758 18.6675C81.3104 18.8858 82.05 19.0595 82.3886 19.5274C80.0762 18.7031 77.8574 17.8878 75.3891 17.5981C72.9208 17.3085 70.4836 17.509 68.0554 17.2774C63.8138 16.8719 59.4341 15.21 55.1479 15.4773C52.586 15.6377 50.0731 16.5199 47.4889 16.6759C45.8449 16.7739 44.1741 16.5912 42.53 16.6714C35.2542 17.0189 27.3101 20.0709 20.8943 23.4036C19.3081 24.2279 17.7977 25.2838 16.4922 26.5091C17.468 26.4155 18.4972 26.0145 19.4195 25.6848C26.7532 23.065 33.8597 19.4204 41.7815 18.7788C43.9647 18.6006 46.3528 18.7655 48.5315 18.6274C50.4875 18.5026 52.439 17.8655 54.3905 17.7318C59.1979 17.3977 63.3905 18.9615 68.0465 19.3803C70.4302 19.5942 72.8584 19.4026 75.2287 19.7011C76.6945 19.8883 78.1158 20.3249 79.5238 20.7348L79.3366 21.0779L73.5802 24.5977L66.3178 23.2878C66.242 23.6754 66.4024 23.5507 66.6118 23.662C68.2381 24.5442 70.9381 24.8918 72.7737 24.9363C71.798 25.5957 69.4099 27.4848 68.3316 27.6319C67.2534 27.7789 64.4331 26.87 63.0742 26.7541C62.7044 26.7229 62.339 26.7274 61.9692 26.7363L63.7069 27.3244C64.8608 27.6363 66.0638 27.7477 67.2267 28.0106C67.3915 28.0462 67.7123 28.0106 67.6722 28.2334C66.2197 28.3002 64.696 27.819 63.2524 27.7789C60.9979 27.7121 58.7346 28.2868 56.4979 28.3893C53.4905 28.5274 50.5231 27.917 47.5068 28.2512C45.9251 28.4249 44.232 29.0086 42.6815 29.1289C39.977 29.3428 37.375 28.8037 34.5993 29.1512C32.4696 29.4141 30.4022 30.1091 28.5042 31.0849H30.3844C34.4211 30.3096 38.725 31.6774 42.6904 31.3878C44.3568 31.2675 46.032 30.6037 47.6761 30.372C50.6791 29.9487 53.5083 30.5992 56.4979 30.4878C57.9103 30.4344 59.4385 30.1314 60.8464 30.0334C62.2544 29.9353 63.5999 29.8819 64.9722 29.8819C65.0613 30.2918 64.8475 30.1358 64.6737 30.2517C63.3415 31.1339 61.9158 31.8957 60.5747 32.7601C59.9019 33.1923 57.4024 35.175 56.9078 35.2596C56.5336 35.3265 55.433 35.1037 54.836 35.126C52.185 35.2329 49.5206 35.7453 46.8875 36.0304C45.934 36.1329 43.2696 36.0928 42.6102 36.4047C42.5523 36.4314 42.4498 36.5473 42.4632 36.6319C42.7884 36.8547 46.8919 36.5428 47.6404 36.4804C50.4518 36.2621 53.2721 35.7275 56.1192 35.8834C55.4019 36.6408 54.484 37.2111 53.7177 37.9062C51.4231 39.9869 51.5301 40.8423 48.0726 41.2656C44.6063 41.6889 37.8429 41.5998 34.479 40.7889C33.4008 40.5304 32.3715 39.9869 31.2666 39.7998C29.1903 39.4478 26.8468 39.7062 24.6992 39.4656C20.0522 38.9398 15.0353 37.1755 10.4996 35.9547C9.41696 35.6651 2.49762 34.3329 2.42188 33.4062C3.86545 31.3344 6.56101 30.4745 8.68181 29.1868C17.1962 24.0229 25.1581 15.4773 33.9577 11.5387C37.7359 9.84563 39.4691 10.2377 43.2473 9.56939C44.8914 9.27979 46.6781 8.3174 48.2597 8.13027C51.4632 7.75156 53.9939 9.62286 57.5405 8.558C57.8034 8.4778 58.7301 8.19711 58.4494 7.81394C58.2133 7.48869 54.4885 7.76938 53.6464 7.66245C52.4479 7.51096 51.2004 6.90502 50.0241 6.78027C47.6627 6.53522 45.6577 7.60007 43.4166 7.94314C40.3246 8.41988 38.1592 8.17037 35.0671 9.35107C27.7779 12.1268 21.4735 17.5491 15.3427 22.1962L10.1922 25.6759L17.0937 18.9972C22.066 14.9739 25.8443 10.4694 31.8547 7.79166C37.081 5.46145 41.278 5.57283 46.6914 4.61936C50.9687 3.86639 55.2236 2.15994 59.6524 2.40945C62.9762 2.59658 66.1084 3.99114 69.294 4.77531C71.7802 5.3857 74.3376 5.67531 76.8327 6.24115C82.5357 7.5377 90.1723 11.5164 95.2427 14.5462C96.058 15.0318 96.8912 15.5174 97.5417 16.2214L97.564 16.2348ZM45.9295 6.03175C42.6859 5.956 39.4736 6.67334 36.3592 7.49314L33.6235 8.58028C35.5305 8.20156 37.3839 7.63572 39.2998 7.27928C41.3137 6.90056 43.6171 6.81145 45.5686 6.33472C45.8226 6.27234 46.0053 6.48175 45.934 6.03175H45.9295ZM74.449 12.1803C74.4 11.9041 74.1416 11.9308 73.9455 11.8595C73.1034 11.5699 71.9495 11.4229 71.0539 11.3026C69.1069 11.0308 67.1064 10.9149 65.146 10.8347L66.3445 11.2135C69.0311 11.6323 71.7267 12.1803 74.4534 12.1848L74.449 12.1803ZM28.0676 11.7303L27.9963 11.4362C25.47 12.3719 23.5096 14.2476 21.7675 16.2348C22.0482 16.2526 22.2844 16.0031 22.5027 15.8471C23.7948 14.916 24.9309 13.7486 26.2185 12.8085C26.5438 12.5724 27.974 11.8417 28.0676 11.7303ZM36.1765 12.6348C34.6037 12.7862 32.8661 13.7219 31.8235 14.8848L36.1765 12.6348ZM41.728 14.4348C39.126 13.9224 36.7424 14.564 34.381 15.5665C31.5384 16.765 28.4106 18.2264 25.617 19.5586C22.3423 21.1224 19.0363 22.869 16.0645 24.9408C18.7155 23.8135 21.068 22.165 23.6656 20.913C27.0829 19.26 31.2176 17.3085 34.7062 15.8962C37.1211 14.9204 37.727 15.2189 40.1597 15.0452C40.3513 15.0318 42.1201 14.8669 41.728 14.4392V14.4348ZM60.7885 14.5863C57.2865 14.3546 53.5662 14.2788 50.0776 14.7556C49.5296 14.8313 48.8211 14.9338 48.2998 15.0808C48.1439 15.1254 47.8454 15.1164 47.881 15.3348L60.7885 14.5863ZM76.4005 14.4348C76.4406 14.6575 76.6767 14.7244 76.8505 14.809C77.9421 15.3348 79.6129 15.6422 80.8292 16.0833C82.1124 16.5511 83.4 17.2105 84.6877 17.6293C84.8436 17.6783 86.3184 18.2531 86.3005 17.812C86.2827 17.4155 81.9609 15.807 81.3149 15.5932C79.7198 15.063 78.0757 14.6174 76.396 14.4348H76.4005ZM53.584 19.0907L51.5657 18.7833L43.6795 19.612C43.8577 19.8927 44.1117 19.7947 44.3523 19.8392C46.7583 20.2892 49.8325 19.3892 52.3053 19.3848L53.5796 19.0863L53.584 19.0907ZM61.84 19.3892L55.0855 18.7878C55.0276 19.0818 55.2236 19.1531 55.4464 19.2511C56.186 19.5675 59.9375 19.759 60.8687 19.6967C61.0959 19.6789 61.7598 19.6655 61.84 19.3937V19.3892ZM77.5767 21.06L68.1445 19.8392C68.1712 20.062 68.6747 20.1868 68.8618 20.2447C71.5574 21.0823 74.8099 21.1982 77.599 21.6348L77.5767 21.0556V21.06ZM50.884 19.9907L40.6765 21.6393C43.4567 21.8442 46.8028 21.6704 49.4627 20.7482C49.8904 20.6011 50.5766 20.3293 50.884 19.9907ZM75.9282 22.2586L66.946 20.7393C66.5583 21.069 68.1712 21.5234 68.296 21.5635C69.2094 21.8531 75.6431 23.1719 75.9505 22.8378L75.9282 22.2586ZM74.5916 23.2967L66.4915 22.0893C66.4425 22.3209 66.5584 22.4056 66.7143 22.5437C67.2044 22.9804 70.4257 23.6175 71.2366 23.7244C72.3416 23.867 73.5 24.0051 74.596 23.7422V23.3011L74.5916 23.2967ZM71.7445 25.5378C71.0985 24.9452 69.9178 24.8427 69.0712 24.6868C67.9574 24.4818 66.7811 24.3036 65.6583 24.2012C65.4222 24.1789 64.7984 23.9828 64.696 24.268C64.5935 24.5531 65.2574 24.6601 65.4445 24.718C67.3692 25.2927 69.7529 25.5913 71.749 25.5422L71.7445 25.5378ZM26.1205 24.4908C24.2225 24.7492 22.0259 25.5111 20.569 26.7408C21.3621 26.6472 22.0794 26.3442 22.8146 26.0635C23.8794 25.6536 25.2294 25.1368 26.1205 24.4952V24.4908ZM59.14 26.1437C57.8702 25.9477 56.5915 25.8229 55.3083 25.8363C54.3415 25.8452 52.8533 25.921 51.882 26.0101C51.7617 26.0234 50.5187 26.1437 50.8885 26.4423H58.9217L59.1445 26.1437H59.14ZM16.0601 25.9923L3.45109 32.8938C7.64814 31.5794 11.7293 29.7527 15.1601 26.968L16.0556 25.9923H16.0601ZM66.5673 27.0437C67.3024 27.115 68.2069 27.0437 68.9688 27.0437C68.9955 27.0437 69.2361 26.8031 69.1915 26.7452L63.7158 25.9923C63.5197 26.0502 63.894 26.3309 63.9474 26.3621C64.3529 26.6116 66.0504 26.9947 66.5673 27.0437ZM41.1265 26.8923L37.1523 26.5937L33.022 27.3423C35.3255 27.1418 37.7136 27.3467 40.0082 27.1997C40.2711 27.1819 40.9929 27.1418 41.1265 26.8967V26.8923ZM24.619 26.7452C22.975 26.9591 20.9967 27.2442 19.669 28.2423C21.117 27.966 22.6453 27.672 24.0175 27.1106C24.1958 27.0393 24.619 26.9546 24.6235 26.7408L24.619 26.7452ZM59.287 27.1908C59.2291 26.919 58.993 26.9101 58.7657 26.8878C57.6831 26.7675 55.8385 26.8388 54.7024 26.8878C54.3682 26.9012 51.3296 27.1017 51.3296 27.271C53.9405 27.8413 56.6405 27.2353 59.287 27.1952V27.1908ZM42.931 27.6452C42.5523 27.5873 42.2048 27.5071 41.8127 27.4848C40.0929 27.4046 36.3013 27.623 34.6394 27.9838C34.4923 28.015 34.1894 28.0373 34.225 28.2423C37.0008 28.0551 39.9637 28.269 42.7082 27.9437C42.9176 27.917 43.1449 27.8502 42.931 27.6452ZM18.466 29.1467C16.363 28.7279 14.1531 29.2938 12.6115 30.7952C14.113 30.2695 15.463 29.7304 17.0581 29.4631C17.5215 29.3873 18.2299 29.6502 18.466 29.1467ZM25.969 30.7952C21.9101 31.419 17.6774 31.869 13.6586 32.6665C11.5734 33.0809 9.52389 33.7314 7.47883 34.2928C7.32289 34.3329 7.02437 34.3284 7.06002 34.5468C10.562 34.9433 14.3937 34.373 17.869 33.7269C20.2883 33.2769 23.6255 32.5284 25.6705 31.1695C25.8443 31.0537 26.0581 31.2096 25.969 30.7997V30.7952ZM62.74 30.9467C61.2207 30.822 59.688 31.3165 58.1687 31.4012C56.1548 31.517 54.092 31.2408 52.0825 31.468C52.234 31.6863 52.4835 31.6774 52.7063 31.7443C54.6712 32.3101 60.0044 31.9448 62.045 31.3789C62.3123 31.3032 62.6375 31.2631 62.7356 30.9467H62.74ZM46.3795 31.5438C45.132 31.771 43.8176 32.2032 42.5523 32.2923C41.6255 32.3547 40.6944 32.2522 39.7765 32.2165C41.3894 33.1656 43.8666 32.8403 45.5553 32.1408C45.7914 32.0428 46.4642 31.8868 46.3795 31.5438ZM51.1825 33.1967C53.2276 33.1032 55.3796 33.326 57.4113 33.1967C57.8791 33.1656 59.14 33.0453 59.5143 32.8982C60.2405 32.6086 59.844 32.3056 59.2157 32.2834C57.4514 32.2255 53.4593 32.5596 51.7127 32.8982C51.4944 32.9428 51.2494 32.8982 51.187 33.1967H51.1825ZM29.5691 33.6467C26.0537 33.2458 22.4448 33.718 19.0319 34.5868L17.263 35.2953L29.5691 33.6467ZM50.5098 34.5468C52.635 34.4265 54.9652 34.5468 57.1128 34.5468C57.291 34.5468 58.3425 34.2126 58.387 34.021C58.3692 33.6022 58.0128 33.6646 57.7187 33.6423C56.2172 33.522 53.5573 33.7581 52.0246 33.9675C51.187 34.0834 50.3449 34.324 49.5295 34.5512C49.6231 34.9745 50.3672 34.5557 50.5053 34.5512L50.5098 34.5468ZM12.6873 35.8968C13.516 35.9725 14.5318 35.8968 15.3873 35.8968C15.5432 35.8968 16.1536 36.3779 16.0645 35.7497C14.8437 35.5715 13.6274 35.3398 12.3798 35.4423C12.117 35.4646 11.8006 35.4156 11.7115 35.7497C12.068 35.6161 12.4556 35.8789 12.6873 35.9012V35.8968ZM42.628 37.8483C44.6731 38.1245 46.7939 38.0131 48.8568 37.8483C49.4449 37.8037 54.0251 37.376 54.034 36.8725L53.3702 36.6408L42.6325 37.8438L42.628 37.8483ZM31.8993 37.3983H28.522L30.4379 37.9552C31.4314 37.8884 34.1805 38.6681 34.9379 38.3384C35.1517 38.2448 35.1696 38.3027 35.125 37.9997C34.822 37.9552 34.5547 37.8082 34.2607 37.7369C33.6547 37.5898 32.523 37.4384 31.8993 37.3938V37.3983ZM43.2295 39.1983C43.6751 39.2072 44.085 39.4255 44.5216 39.4834C45.8449 39.6616 49.8771 39.6171 50.9909 39.0824C51.5612 38.8062 51.7172 38.3116 50.9687 38.2938C49.739 38.2626 47.5736 38.9621 46.1568 39.0468C45.3236 39.0958 44.4414 38.8596 43.7553 38.8953C43.5191 38.9087 43.2963 38.9176 43.234 39.1938L43.2295 39.1983ZM49.534 40.3968C49.4761 40.125 49.2399 40.1161 49.0127 40.0938C47.979 39.978 45.7379 40.223 44.6553 40.3968C44.4325 40.4324 44.1919 40.4057 44.1295 40.6953C45.8672 40.9448 47.8632 41.0428 49.534 40.3968Z" fill="#F2E4D2"/>
<path d="M95.7283 18.8334C99.6446 18.5661 104.635 18.9537 107.963 21.2171C110.182 22.723 111.701 25.0176 113.617 26.8176C118.322 31.2419 124.622 33.6523 125.183 41.2177C126.244 55.5598 113.002 70.5881 105.521 81.7535C102.371 84.9882 98.3481 87.2115 94.7258 89.867C91.3486 92.3442 88.1807 95.0798 84.6431 97.3477C76.1866 102.77 65.4044 109.052 55.687 111.619C50.8261 112.902 48.6964 111.881 44.0359 111.267C39.674 110.687 34.9512 110.536 30.5448 110.638C28.9408 110.674 26.6819 111.093 25.1403 110.95C24.8418 110.924 24.5655 110.919 24.3205 110.723C23.7947 110.188 24.9843 107.257 25.1804 106.472C26.7621 100.217 27.9428 93.4224 28.6735 87.0021C29.4532 80.1318 29.0789 76.4783 32.8126 70.2807C41.3315 56.148 49.4315 43.6905 63.4484 34.4231C68.2024 31.2775 73.3529 27.9849 78.2183 25.0265C83.6183 21.7473 89.3213 19.2656 95.7372 18.8289L95.7283 18.8334ZM111.367 29.1434C109.527 25.1468 105.138 21.5111 100.741 20.7804C94.3382 19.72 85.0931 23.6141 79.9515 27.3701C78.998 28.0651 77.9376 28.8047 77.296 29.8161L79.448 28.5151C84.3357 24.278 94.9486 19.7022 101.342 21.2349C105.566 22.2463 108.645 26.029 111.367 29.1434ZM97.0471 84.0169C99.9343 80.8491 101.819 76.8837 104.617 73.8005C106.328 71.9159 108.622 70.6371 110.32 68.699C112.347 66.3822 115.332 60.2425 116.598 57.2663C117.524 55.0876 117.72 53.1049 118.344 50.9083C118.968 48.7118 120.064 46.8628 120.229 44.3855C120.576 39.1949 118.54 36.2587 113.764 34.481C112.984 34.1914 111.688 34.0666 111.06 33.581C110.275 32.9751 109.696 30.9701 109.193 30.0434C105.276 22.8656 96.156 21.2884 89.005 24.2691C84.8703 25.9933 81.551 29.0587 77.7326 31.3087C75.5406 32.6008 73.2237 33.6033 71.0049 34.9355C62.7623 39.8766 55.384 45.2009 49.6186 53.0202C48.1751 54.9762 47.3152 57.4668 45.7825 59.2401C44.076 61.2183 42.8374 61.7975 41.3983 64.3148C39.7097 67.2733 38.5067 69.0465 36.5864 71.8134C33.0086 76.9684 33.6814 81.6199 33.1646 87.4565C32.7903 91.6848 32.0374 95.8596 31.6631 100.213C31.5651 101.362 30.8477 103.02 31.5161 103.969C32.4428 105.283 37.1701 105.867 38.8186 106.125C47.5825 107.497 53.6107 108.812 62.0405 105.073C66.4202 103.131 71.9049 100.444 76.044 98.065C78.6638 96.5591 80.9941 94.6343 83.5515 93.115C86.1089 91.5957 89.0273 90.6288 91.509 88.9179C93.3803 87.6259 95.51 85.6966 97.0427 84.0169H97.0471ZM74.899 30.4978C74.6361 30.4443 74.4668 30.5691 74.2485 30.6716C72.9653 31.2909 70.8579 33.1221 69.4811 34.0087C68.1044 34.8954 64.9365 36.4058 63.9029 37.3949C63.7336 37.5553 63.6133 37.7558 63.64 38.0008C63.7469 38.1122 65.9435 36.7934 66.2375 36.6241C68.5588 35.2785 72.992 32.9795 74.596 31.0236C74.7341 30.8543 74.9613 30.783 74.8945 30.4978H74.899ZM119.476 35.2964C119.614 35.1805 117.783 33.1176 117.226 33.3493C117.27 33.8394 119.249 35.4879 119.476 35.2964ZM120.826 48.5068C121.882 45.9984 122.189 43.6415 121.534 40.9726C121.321 40.0994 120.942 38.8563 120.229 38.2993C120.911 40.3711 121.601 42.1088 121.41 44.3588C121.303 45.5796 120.71 46.9741 120.621 48.088C120.603 48.3063 120.514 48.4266 120.826 48.5068ZM60.94 39.8008C60.6192 39.5291 57.5226 41.9796 57.1172 42.3538C56.8989 42.5543 55.3439 44.087 55.54 44.3009C56.841 43.4098 58.1687 42.4786 59.3627 41.4449C59.5543 41.2756 61.0959 39.93 60.9444 39.8008H60.94ZM52.684 46.8583C52.5815 46.7603 51.6815 47.4999 51.5568 47.6113C50.982 48.137 50.1934 49.1662 49.7077 49.8078C48.028 52.0311 46.5889 54.5039 45.4795 57.0613L52.684 46.8583ZM106.568 73.8718L110.396 70.8733C114.294 66.3109 116.647 61.7307 118.799 56.1613C119.32 54.8158 119.859 53.4257 119.926 51.9598C119.699 52.04 119.552 52.5346 119.454 52.7573C117.213 57.7742 115.894 63.2188 112.423 67.6386C110.663 69.8797 108.471 71.7555 106.573 73.8674L106.568 73.8718ZM38.1235 67.5673C38.6047 66.0525 39.5359 64.5153 40.4626 63.2277C41.5364 61.7396 43.1047 60.4252 43.8265 58.7099C41.7503 60.2871 38.1235 64.5376 37.9186 67.1485C37.9007 67.3668 37.8116 67.4871 38.1235 67.5673ZM32.122 87.6793C33.0309 82.9075 31.418 77.7971 33.8997 73.3238L36.172 69.5188C33.6057 72.1342 32.0507 75.6674 31.8146 79.3431C31.6765 81.5129 31.6765 84.6941 31.8146 86.8595C31.8279 87.0734 31.8324 87.6481 32.1175 87.6793H32.122ZM106.118 74.3218C105.838 74.255 105.762 74.4778 105.593 74.6203C104.381 75.6406 103.187 77.0887 102.518 78.5233C102.817 78.5501 103.066 78.3406 103.267 78.1491C104.305 77.1644 105.205 75.4624 106.118 74.3218ZM90.8095 90.2323C91.0634 90.2858 91.206 90.1031 91.3931 89.9917C92.605 89.2966 94.1511 88.2585 95.2961 87.4432C97.8268 85.6432 100.442 83.5313 101.462 80.4748C100.322 81.3035 99.6224 82.6134 98.6912 83.6293C96.3476 86.1823 93.6565 88.2763 90.8095 90.2278V90.2323ZM88.408 91.8853C84.2287 93.5026 80.798 96.4566 76.9529 98.662C73.9678 100.373 70.644 101.665 67.6945 103.363C67.3915 103.536 66.9727 103.728 66.7989 104.04C71.7044 102.498 76.4495 100.382 80.6554 97.4101L88.4124 91.8853H88.408ZM29.569 92.0323C29.1502 91.961 29.3151 92.117 29.2304 92.362C28.2903 95.0308 28.1477 98.5328 27.769 101.335C28.2146 101.429 28.2368 100.444 28.2992 100.137C28.6735 98.2922 28.8561 96.4031 29.1636 94.5497C29.3061 93.7076 29.7116 92.9234 29.569 92.0279V92.0323ZM30.469 99.6868C30.8923 97.6685 31.2532 95.6011 31.222 93.5338C30.9591 93.6051 30.8878 94.162 30.8166 94.4026C30.5982 95.1378 30.4245 96.0021 30.3265 96.764C30.2418 97.4145 30.0948 98.867 30.175 99.4685C30.2017 99.6734 30.2552 99.9096 30.4735 99.6913L30.469 99.6868ZM30.919 102.69C30.6294 102.627 30.5581 102.837 30.4066 103.002C29.5334 103.964 28.5844 104.779 27.7066 105.706C27.5641 105.858 27.4215 106.103 27.3146 106.29C27.8047 106.669 31.2131 103.728 30.9146 102.69H30.919ZM54.484 109.141C54.6934 109.395 56.6494 109.181 57.0726 109.106C58.6053 108.821 60.8152 107.689 62.0405 106.718C62.8024 106.112 64.0811 104.721 62.1073 105.581C60.9756 106.076 59.8707 106.994 58.7301 107.457C57.7588 107.849 55.1835 108.201 54.582 108.682C54.4528 108.789 54.4439 109.088 54.4885 109.141H54.484ZM41.1265 107.64C41.7369 107.11 38.7295 106.86 38.5691 106.824C37.4998 106.579 36.475 106.138 35.428 105.916C35.1205 105.849 34.5948 105.599 34.3765 105.916C34.8755 106.954 40.7701 107.952 41.1265 107.64ZM46.081 107.796L42.628 107.043C42.8775 108.13 44.6775 108.201 45.5597 108.099C45.7825 108.072 46.0231 108.068 46.081 107.796ZM52.0825 108.094L48.028 108.019C48.536 109.119 50.7949 108.972 51.7172 108.553C51.9444 108.451 52.136 108.402 52.0825 108.094ZM30.322 108.994H40.5295C40.5384 108.767 40.0082 108.736 39.8344 108.714C37.4374 108.362 33.7304 108.415 31.3156 108.714C31.0972 108.74 30.4022 108.789 30.322 108.994Z" fill="#F2E4D2"/>
<path d="M112.663 84.1644C117.025 80.0119 119.658 75.4005 122.803 70.3658C122.897 70.2144 123.115 69.9025 123.08 70.3391C121.106 77.2763 117.141 83.4159 112.28 88.66C108.484 92.7546 104.006 96.0784 99.9648 99.9101C95.2509 104.379 90.8711 110.527 84.3305 112.194C83.2434 112.47 82.0805 112.537 81.0201 112.786C77.8656 113.535 75.2993 115.576 72.0824 116.453C62.3517 119.118 53.5655 120.084 43.8882 116.516C43.6966 116.444 43.4293 116.48 43.3803 116.199C43.9818 115.95 44.5966 116.132 45.2115 116.244C48.6645 116.845 52.5407 118.752 56.0695 118.605C58.5022 118.507 61.1353 117.496 63.5903 117.122C70.0819 116.132 73.7933 115.976 79.8038 112.773C81.5013 111.869 82.8825 110.51 84.4998 109.663C87.231 108.233 90.3543 107.761 92.8984 105.903C95.0504 104.334 96.2845 102.093 98.1603 100.36C100.312 98.3729 103.467 97.4551 104.536 94.4298C104.585 94.2917 105.013 93.0397 104.541 93.2358C104.033 93.4452 102.375 95.8378 101.613 96.4615C100.388 97.4729 98.7751 98.0789 97.4875 99.0903C95.3043 100.806 93.883 103.163 91.3924 104.7C88.7236 106.348 85.587 106.834 82.8602 108.478C81.2607 109.445 79.7904 110.795 78.1463 111.717C73.5839 114.283 69.5918 114.564 64.6596 115.642C61.1933 116.4 56.7111 118.213 53.2002 117.255C52.9952 117.197 52.7323 117.237 52.6833 116.948C55.0091 117.108 57.317 116.752 59.5893 116.271C62.4453 115.669 65.8047 114.742 68.5938 113.869C73.0983 112.452 75.1522 110.109 79.0018 107.917C82.8513 105.724 86.1394 105.007 89.0845 101.639C89.3073 101.385 90.6662 99.7274 90.5058 99.5358C88.5276 100.69 86.8167 102.231 84.8518 103.408C82.8869 104.584 80.8642 105.323 79.0018 106.411C74.974 108.763 71.3918 112.247 66.4017 112.875C66.2413 112.898 65.8581 113.005 65.8938 112.742C69.0393 111.788 71.7082 109.779 74.4037 107.97C77.233 106.117 80.7171 104.686 83.4528 102.757C83.6711 102.601 83.6889 102.494 83.377 102.53C81.1048 103.822 78.7656 105.003 76.5023 106.313C74.974 107.199 73.5438 108.309 71.9978 109.16C68.3666 111.156 64.5393 111.918 60.7121 113.334C58.6759 114.087 56.4259 115.402 54.3452 115.821C51.1016 116.471 46.7709 115.054 43.4338 114.56C40.0966 114.065 36.4832 113.784 33.0258 113.334C32.9901 113.072 33.3689 113.192 33.5471 113.187C36.7015 113.058 40.1634 113.21 43.2823 113.66C47.8714 114.319 50.3977 115.553 55.2363 114.466C70.7057 110.986 83.8939 100.828 96.2222 91.5115C99.8801 88.7491 104.696 85.9823 107.695 82.5694C109.116 80.9521 110.154 79.0273 111.46 77.3253C113.402 74.7857 115.568 72.3886 117.435 69.7911C120.91 64.9525 123.08 59.3475 125.405 53.8984C125.579 57.9574 124.661 61.7178 122.906 65.3579C118.905 73.6629 114.503 79.6199 108.216 86.2362C107.838 86.6328 105.485 89.1056 105.432 89.3061C105.356 89.5734 105.374 89.5868 105.592 89.765C106.363 89.7962 111.776 84.9932 112.658 84.1511L112.663 84.1644ZM122.928 62.9163C121.89 64.0079 121.306 65.5807 120.5 66.8639C120.041 67.5946 119.538 68.3074 119.061 69.0292C117.363 71.5911 114.668 74.6297 113.26 77.1827C113.197 77.2941 112.676 78.2431 113.099 78.2208C113.251 78.2119 115.029 76.3228 115.274 76.0421C117.608 73.3644 119.885 69.3901 121.511 66.2178C122.055 65.153 122.656 64.0836 122.933 62.9119L122.928 62.9163ZM103.721 92.6343L110.19 87.7734C113.581 86.0847 116.196 83.5273 117.381 79.8783C115.889 81.2951 114.926 83.1441 113.465 84.5833C112.244 85.7862 110.546 87.1852 109.201 88.2813C107.396 89.7471 105.316 90.9145 103.725 92.6387L103.721 92.6343ZM105.672 86.1783L107.325 84.904C108.64 83.4828 110.471 82.1595 110.925 80.1723C109.041 82.0481 107.673 84.3738 105.672 86.1739V86.1783ZM83.9072 102.387C88.1177 101.077 90.7107 97.2368 94.1281 94.6704C96.7657 92.6922 99.8846 91.4358 102.371 89.257L104.166 87.3768C102.923 88.1298 101.863 89.1367 100.673 89.961C98.7484 91.2932 96.5875 92.3937 94.7251 93.766C91.8692 95.8779 89.4454 98.8586 86.4781 100.828C85.6404 101.385 84.6647 101.741 83.9072 102.383V102.387ZM91.7132 100.137C92.1766 100.182 92.5419 99.8432 92.8984 99.5982C94.1192 98.7606 95.2642 97.3705 96.4449 96.3902C98.6549 94.5457 101.644 92.817 103.641 90.9769C103.943 90.7006 104.572 90.2462 104.251 89.7739C104.001 89.4887 103.77 89.6848 103.52 89.8051C101.979 90.5402 98.3474 93.2803 96.8949 94.4388C95.741 95.361 92.5286 98.3328 91.9182 99.518C91.8112 99.7229 91.6464 99.8566 91.7132 100.137ZM102.219 93.8373L96.4449 97.5932C92.9563 102.664 87.1508 104.009 82.2676 107.132C80.5122 108.255 78.9216 109.65 77.3042 110.946C79.5052 110.207 81.2785 108.656 83.2612 107.524C86.5493 105.649 90.0246 104.25 92.9162 101.719C93.9811 100.783 94.9212 99.5848 95.9949 98.6447C97.9732 96.9115 100.433 95.7754 102.219 93.8373Z" fill="#F2E4D2"/>
<path d="M48.0331 43.5515L41.7286 51.4422L41.5236 51.4956C40.9177 50.8362 40.0355 50.7159 39.1756 50.7605L39.8172 51.2417L40.8241 51.5045L39.0196 51.4199L38.4226 51.5803C39.2246 52.0704 40.2093 52.1372 41.1226 52.106L40.8731 52.5605C37.5805 52.5471 34.5374 51.1258 31.5166 50.003C33.9315 52.0615 37.282 52.8724 40.3741 53.3046L39.581 54.0219C34.6444 52.8545 29.975 50.7872 25.5151 48.4303C22.2403 46.6971 20.3067 45.1689 17.3973 43.0391C13.4943 40.1832 8.89622 38.5258 4.95312 35.75C11.9749 38.0579 18.7116 41.2882 26.1923 41.903C27.6136 42.0188 29.0929 41.8584 30.5275 42.0723C31.9622 42.2862 33.3701 42.9991 34.8226 43.3332C39.0419 44.3045 43.7692 44.1486 48.0286 43.556L48.0331 43.5515ZM28.0681 44.3045C26.0141 43.2263 23.6795 42.9055 21.4651 42.2773C20.0171 41.8629 18.627 41.1634 17.1121 41.003C17.2502 41.2169 17.7403 41.4441 17.9809 41.5599C18.7963 41.9476 19.7408 42.2594 20.6007 42.5446C23.0201 43.351 25.5418 43.9258 27.9924 44.6075L28.0681 44.309V44.3045ZM28.3711 45.953C28.4424 45.1555 27.2884 44.9015 26.6869 44.7144C25.0517 44.2065 23.3097 44.0639 21.621 43.8545L28.3755 45.953H28.3711ZM44.8385 45.8461C44.2415 45.3248 42.29 45.454 41.5058 45.3515C40.2271 45.1867 38.9528 44.9283 37.6785 44.7545C37.5939 45.1911 37.8078 44.9951 38.0082 45.0931C40.089 46.1223 42.74 46.2827 45.0301 46.256C45.0479 46.2426 44.883 45.8862 44.8385 45.8461ZM44.1301 47.4545C44.1523 47.1783 44.1835 46.9956 43.8716 46.8887C42.9137 46.5501 41.1093 46.6882 40.0177 46.5367C38.6721 46.354 37.3533 45.9129 36.0211 45.6545C36.6805 46.501 38.1419 46.7015 39.1711 46.9288C40.8018 47.2941 42.4504 47.5525 44.1256 47.4501L44.1301 47.4545ZM42.9226 48.3679C41.8088 48.1407 40.7439 48.2075 39.5989 48.0115C38.231 47.7798 36.7652 47.2362 35.4285 46.853C35.3439 47.254 35.531 47.1114 35.7226 47.2273C36.8409 47.8912 41.8578 49.5397 42.8424 48.8179L42.9226 48.3634V48.3679ZM32.4255 47.6015C34.9696 48.6308 38.2845 50.1946 41.0558 50.306C41.6439 50.3283 42.4726 50.1857 41.7197 49.6377C41.2429 49.2902 37.536 48.6976 36.5914 48.4615C35.433 48.1718 34.1364 47.4902 32.9513 47.4456C32.7864 47.4412 32.381 47.352 32.4211 47.6015H32.4255Z" fill="#F2E4D2"/>
<path d="M37.2006 58.0909L24.9213 53.9116C24.752 54.0631 25.3356 54.5532 25.4515 54.6557C27.0733 56.1037 29.9604 57.4894 31.9787 58.3315C33.3198 58.8929 34.7723 59.4587 36.1758 59.7617C35.8773 61.2676 34.5807 60.3988 33.5872 60.0246C30.1787 58.7325 27.5099 56.4379 24.1683 55.1102C24.1015 55.4131 24.2351 55.5112 24.3866 55.7161C25.0772 56.6607 26.8238 58.0641 27.8129 58.7458C29.8758 60.1716 32.3307 61.2899 34.6743 62.1676C34.7233 62.4751 34.5986 62.7513 34.3045 62.8671C30.3436 61.7577 27.3317 58.8483 23.7228 57.0661C23.1435 57.7122 26.2134 60.176 26.7391 60.577C27.7104 61.3166 28.851 62.0607 29.9248 62.6444C30.4372 62.9251 33.1416 64.0746 33.2664 64.2662C33.4134 64.4934 33.1104 65.028 32.8297 65.0013C32.206 64.6627 31.5466 64.3909 30.9362 64.03C28.2005 62.4171 24.5827 59.8642 22.0208 57.9349C18.6346 55.3864 15.5826 51.7686 13.2702 48.222C13.1856 48.0928 12.9004 47.8879 13.1366 47.7542C14.9321 49.8794 16.7054 52.4191 18.844 54.2057C19.3519 54.629 21.7044 56.2864 22.2168 56.3933C22.551 56.4646 22.9787 56.2419 23.2683 56.0859C21.2901 54.1211 19.0044 52.4369 17.1108 50.3874C14.8029 47.8923 12.7935 44.6309 10.2138 42.4254C9.99546 42.2383 9.46971 41.7259 9.16228 41.8284C9.94199 43.2007 10.9935 44.4482 11.791 45.8071C11.9336 46.0522 11.938 46.2705 11.6351 45.9586C9.9108 43.3433 7.54495 41.1868 6.00781 38.4512L10.6103 40.9774C15.3688 43.4636 19.0891 47.4423 23.7673 50.0354C28.2673 52.5305 33.1817 54.7849 38.1228 56.2419C38.3189 56.3889 38.3011 56.4023 38.203 56.6161C37.9892 57.0839 37.3877 57.5785 37.2006 58.0953V58.0909ZM24.6183 54.6602C24.7742 54.5131 24.2173 54.023 24.097 53.9072C20.3277 50.2537 16.5227 46.6849 12.3836 43.4101C12.1564 43.2319 11.8623 42.9601 11.5638 42.9557C11.3767 43.1517 12.9182 44.9472 13.1366 45.2101C15.4935 47.9903 19.1292 51.6661 22.2302 53.524C22.9787 53.974 23.745 54.4953 24.6183 54.6602ZM37.3743 57.2132C37.6639 56.9102 36.4342 56.3622 36.2783 56.2864C34.6832 55.5334 32.7807 54.9587 31.1233 54.2369C29.5906 53.5686 28.1159 52.7532 26.5743 52.1116C26.5119 52.3923 26.7124 52.477 26.8861 52.624C27.3718 53.0473 28.4277 53.6265 29.0248 53.9384C31.658 55.3196 34.5674 56.282 37.3788 57.2132H37.3743Z" fill="#F2E4D2"/>
<path d="M121.725 28.9919C122.135 29.3573 126.822 26.3632 126.831 25.2404C127.031 25.0978 127.673 25.6815 127.285 25.9221L122.219 29.8607L118.57 27.0404C120.201 26.7062 121.832 26.176 123.298 25.3874C123.953 25.0354 124.942 24.1711 125.481 23.9572C126.064 23.7255 126.528 24.6968 126.969 25.0087C126.078 25.5389 125.311 26.2652 124.469 26.8577C123.756 27.3612 122.825 27.7845 122.179 28.3236C121.974 28.4973 121.676 28.6667 121.716 28.9874L121.725 28.9919Z" fill="#F2E4D2"/>
<path d="M124.747 33.0235L124.453 32.5156L128.628 29.6641L129.078 29.82C129.127 30.0695 129.002 30.1854 128.864 30.3547C128.566 30.7156 125.625 32.7784 125.17 32.9656C125.032 33.0235 124.89 33.1081 124.747 33.0235Z" fill="#F2E4D2"/>
<path d="M25.9666 30.7955C26.0557 31.2054 25.8419 31.0494 25.6681 31.1653C23.6186 32.5242 20.2859 33.2727 17.8666 33.7227C14.3913 34.3688 10.5596 34.9391 7.05762 34.5425C7.02197 34.3287 7.32049 34.3331 7.47643 34.2886C9.52149 33.7272 11.5755 33.0767 13.6562 32.6623C17.675 31.8648 21.9077 31.4148 25.9666 30.791V30.7955Z" fill="#4B2E22"/>
<path d="M41.7338 14.4364C42.1214 14.8641 40.3571 15.029 40.1655 15.0423C37.7328 15.2161 37.1269 14.9131 34.712 15.8933C31.2234 17.3057 27.0887 19.2572 23.6713 20.9102C21.0738 22.1666 18.7213 23.8152 16.0703 24.9379C19.0421 22.8661 22.3436 21.1241 25.6228 19.5557C28.4164 18.2235 31.5442 16.7622 34.3867 15.5636C36.7526 14.5656 39.1318 13.924 41.7338 14.4319V14.4364Z" fill="#4B2E22"/>
<path d="M16.0576 25.9922L15.1621 26.9679C11.7314 29.7526 7.65018 31.5793 3.45312 32.8937L16.0621 25.9922H16.0576Z" fill="#4B2E22"/>
<path d="M75.925 22.2595L75.9473 22.8388C75.6399 23.1685 69.2062 21.8496 68.2928 21.5645C68.1681 21.5244 66.5552 21.0699 66.9428 20.7402L75.925 22.2595Z" fill="#4B2E22"/>
<path d="M42.6295 37.8495L53.3671 36.6465L54.031 36.8782C54.0265 37.3816 49.4419 37.8049 48.8537 37.8539C46.7953 38.0143 44.6745 38.1302 42.625 37.8539L42.6295 37.8495Z" fill="#4B2E22"/>
<path d="M50.8794 19.9922C50.5764 20.3308 49.8858 20.5981 49.4581 20.7496C46.7981 21.6719 43.4521 21.8457 40.6719 21.6407L50.8794 19.9922Z" fill="#4B2E22"/>
<path d="M76.3984 14.4355C78.0781 14.6182 79.7222 15.0638 81.3173 15.594C81.9633 15.8078 86.2851 17.4118 86.303 17.8128C86.3208 18.2494 84.846 17.6791 84.6901 17.6301C83.4024 17.2158 82.1148 16.5519 80.8316 16.0841C79.5485 15.6162 77.9445 15.3356 76.8529 14.8098C76.6791 14.7252 76.4385 14.6628 76.4029 14.4355H76.3984Z" fill="#4B2E22"/>
<path d="M77.5807 21.0601L77.6029 21.6393C74.8094 21.1982 71.5613 21.0868 68.8658 20.2492C68.6786 20.1913 68.1752 20.0665 68.1484 19.8438L77.5807 21.0645V21.0601Z" fill="#4B2E22"/>
<path d="M74.5877 23.2978V23.7389C73.4961 24.0018 72.3421 23.8681 71.2327 23.7211C70.4174 23.6142 67.1961 22.977 66.7104 22.5404C66.559 22.4023 66.4387 22.3221 66.4877 22.0859L74.5877 23.2934V23.2978Z" fill="#4B2E22"/>
<path d="M29.5638 33.6489L17.2578 35.2975L19.0266 34.589C22.444 33.7158 26.0485 33.2435 29.5638 33.6489Z" fill="#4B2E22"/>
<path d="M50.507 34.5474C50.3689 34.5563 49.6248 34.9751 49.5312 34.5474C50.3421 34.3201 51.1842 34.0795 52.0263 33.9637C53.559 33.7498 56.2189 33.5182 57.7204 33.6385C58.0145 33.6607 58.3709 33.5984 58.3887 34.0172C58.3442 34.2088 57.2882 34.5429 57.1145 34.5429C54.9625 34.5429 52.6367 34.4226 50.5115 34.5429L50.507 34.5474Z" fill="#4B2E22"/>
<path d="M45.9276 6.03227C45.9989 6.48227 45.8163 6.27287 45.5623 6.33524C43.6108 6.81198 41.3073 6.90109 39.2935 7.2798C37.2796 7.65852 35.5241 8.20208 33.6172 8.5808L36.3528 7.49366C39.4672 6.67386 42.6796 5.96098 45.9232 6.03227H45.9276Z" fill="#4B2E22"/>
<path d="M62.739 30.947C62.6409 31.2634 62.3157 31.3035 62.0484 31.3792C60.0078 31.945 54.6746 32.3104 52.7097 31.7446C52.4869 31.6777 52.2374 31.6866 52.0859 31.4683C54.0954 31.2411 56.1582 31.5173 58.1721 31.4015C59.6914 31.3168 61.2241 30.8178 62.7434 30.947H62.739Z" fill="#4B2E22"/>
<path d="M60.7932 14.5865L47.8857 15.335C47.8501 15.1167 48.1486 15.1256 48.3046 15.081C48.8258 14.934 49.5343 14.8315 50.0823 14.7558C53.5709 14.279 57.2912 14.3548 60.7932 14.5865Z" fill="#4B2E22"/>
<path d="M43.231 39.1982C43.2934 38.922 43.5162 38.9086 43.7523 38.8997C44.4385 38.864 45.3251 39.1002 46.1538 39.0512C47.5706 38.9621 49.736 38.2625 50.9657 38.2982C51.7187 38.316 51.5583 38.8106 50.988 39.0868C49.8741 39.6215 45.8419 39.6705 44.5186 39.4878C44.082 39.4299 43.6766 39.2116 43.2266 39.2027L43.231 39.1982Z" fill="#4B2E22"/>
<path d="M53.5797 19.092L52.3055 19.3906C49.8282 19.3906 46.7584 20.295 44.3525 19.845C44.1119 19.8005 43.8579 19.8985 43.6797 19.6178L51.5659 18.7891L53.5842 19.0965L53.5797 19.092Z" fill="#4B2E22"/>
<path d="M51.1841 33.1982C51.2465 32.8997 51.4916 32.9442 51.7099 32.8997C53.4609 32.5611 57.4485 32.2224 59.2129 32.2848C59.8411 32.3071 60.2377 32.6056 59.5114 32.8997C59.1416 33.0467 57.8763 33.1715 57.4084 33.1982C55.3767 33.3274 53.2247 33.1046 51.1797 33.1982H51.1841Z" fill="#4B2E22"/>
<path d="M74.4481 12.182C71.7214 12.1776 69.0258 11.6296 66.3391 11.2107L65.1406 10.832C67.101 10.9167 69.0971 11.0325 71.0486 11.2999C71.9441 11.4246 73.0981 11.5716 73.9402 11.8568C74.1362 11.9236 74.3991 11.8969 74.4436 12.1776L74.4481 12.182Z" fill="#4B2E22"/>
<path d="M71.7434 25.5388C69.7473 25.5878 67.3637 25.2893 65.4389 24.7145C65.2518 24.6566 64.5879 24.5541 64.6904 24.2645C64.7928 23.9749 65.4166 24.1754 65.6528 24.1977C66.78 24.3046 67.9562 24.4784 69.0656 24.6833C69.9122 24.8392 71.0929 24.9417 71.7389 25.5343L71.7434 25.5388Z" fill="#4B2E22"/>
<path d="M59.137 26.1443L58.9142 26.4429H50.881C50.5112 26.1443 51.7542 26.024 51.8745 26.0107C52.8458 25.9216 54.334 25.8458 55.3008 25.8369C56.5884 25.8235 57.8671 25.9483 59.1325 26.1443H59.137Z" fill="#4B2E22"/>
<path d="M42.9276 27.6457C43.1459 27.8507 42.9187 27.9219 42.7049 27.9442C39.9647 28.265 36.9974 28.0512 34.2216 28.2427C34.186 28.0378 34.489 28.0155 34.636 27.9843C36.2979 27.6234 40.0895 27.4051 41.8093 27.4853C42.2014 27.5031 42.5489 27.5833 42.9276 27.6457Z" fill="#4B2E22"/>
<path d="M61.8431 19.3891C61.7673 19.6609 61.1035 19.6788 60.8718 19.6921C59.9406 19.759 56.1891 19.5629 55.4495 19.2466C55.2222 19.1486 55.0307 19.0817 55.0886 18.7832L61.8431 19.3847V19.3891Z" fill="#4B2E22"/>
<path d="M31.9007 37.3984C32.52 37.443 33.6561 37.59 34.2621 37.7415C34.5561 37.8128 34.8279 37.9554 35.1264 38.0044C35.171 38.3074 35.1487 38.2494 34.9393 38.343C34.1863 38.6727 31.4373 37.893 30.4393 37.9598L28.5234 37.4029H31.9007V37.3984Z" fill="#4B2E22"/>
<path d="M41.1279 26.8928C40.9898 27.1423 40.268 27.1824 40.0096 27.1958C37.7195 27.3428 35.3269 27.1379 33.0234 27.3384L37.1537 26.5898L41.1279 26.8884V26.8928Z" fill="#4B2E22"/>
<path d="M59.2856 27.1919C56.639 27.232 53.939 27.8379 51.3281 27.2676C51.3281 27.0983 54.3668 26.9023 54.7009 26.8845C55.8371 26.8354 57.6816 26.7642 58.7643 26.8845C58.9871 26.9112 59.2277 26.9156 59.2856 27.1874V27.1919Z" fill="#4B2E22"/>
<path d="M28.0657 11.7316C27.9676 11.8429 26.5419 12.5736 26.2166 12.8098C24.929 13.7454 23.7884 14.9172 22.5008 15.8484C22.2825 16.0044 22.0463 16.2539 21.7656 16.236C23.5077 14.2489 25.4681 12.3731 27.9944 11.4375L28.0657 11.7316Z" fill="#4B2E22"/>
<path d="M49.5295 40.3974C47.8587 41.0479 45.8626 40.9454 44.125 40.6959C44.1874 40.4063 44.428 40.4331 44.6507 40.3974C45.7334 40.2237 47.9745 39.9786 49.0082 40.0944C49.231 40.1212 49.4716 40.1256 49.5295 40.3974Z" fill="#4B2E22"/>
<path d="M46.3764 31.5449C46.4611 31.888 45.7883 32.0439 45.5522 32.142C43.868 32.8415 41.3908 33.1667 39.7734 32.2177C40.6868 32.2533 41.6225 32.3558 42.5492 32.2934C43.8145 32.2043 45.1334 31.7766 46.3764 31.5449Z" fill="#4B2E22"/>
<path d="M66.5702 27.0437C66.0533 26.9947 64.3558 26.6115 63.9504 26.362C63.8969 26.3308 63.5271 26.0501 63.7187 25.9922L69.1945 26.7452C69.239 26.8031 68.9984 27.0437 68.9717 27.0437C68.2098 27.0437 67.3053 27.115 66.5702 27.0437Z" fill="#4B2E22"/>
<path d="M18.4639 29.1478C18.2277 29.6512 17.5193 29.3883 17.0559 29.4641C15.4609 29.727 14.1153 30.2705 12.6094 30.7963C14.151 29.2948 16.3609 28.7289 18.4639 29.1478Z" fill="#4B2E22"/>
<path d="M26.1218 24.4908C25.2263 25.1324 23.8763 25.6537 22.8159 26.0591C22.0807 26.3398 21.3634 26.6428 20.5703 26.7363C22.0273 25.5066 24.2238 24.7492 26.1218 24.4863V24.4908Z" fill="#4B2E22"/>
<path d="M24.6185 26.7461C24.6185 26.96 24.1908 27.0402 24.0126 27.1159C22.6448 27.6728 21.1165 27.9669 19.6641 28.2476C20.9962 27.2496 22.97 26.9644 24.6141 26.7506L24.6185 26.7461Z" fill="#4B2E22"/>
<path d="M36.1733 12.6367L31.8203 14.8867C32.8629 13.7283 34.6005 12.7927 36.1733 12.6367Z" fill="#4B2E22"/>
<path d="M12.6867 35.8986C12.455 35.8763 12.0674 35.6134 11.7109 35.7471C11.8 35.4129 12.1164 35.4619 12.3793 35.4397C13.6268 35.3416 14.8431 35.5689 16.0639 35.7471C16.153 36.3798 15.5471 35.8941 15.3867 35.8941C14.5312 35.8941 13.5109 35.9699 12.6867 35.8941V35.8986Z" fill="#4B2E22"/>
<path d="M97.0428 84.017C95.5101 85.6968 93.3804 87.626 91.5091 88.9181C89.0274 90.629 86.1358 91.578 83.5516 93.1151C80.9674 94.6523 78.6639 96.5592 76.0441 98.0651C71.905 100.444 66.4159 103.131 62.0406 105.074C53.6108 108.812 47.5826 107.497 38.8187 106.125C37.1746 105.867 32.4429 105.283 31.5162 103.969C30.8478 103.02 31.5652 101.362 31.6632 100.213C32.033 95.8552 32.7904 91.6849 33.1647 87.4567C33.6815 81.6245 33.0087 76.9685 36.5865 71.8135C38.5068 69.0467 39.7053 67.2734 41.3984 64.315C42.8375 61.7976 44.0761 61.2184 45.7826 59.2402C47.3153 57.4669 48.1752 54.9763 49.6187 53.0203C55.3841 45.201 62.7668 39.8767 71.005 34.9356C73.2283 33.6034 75.5451 32.6009 77.7327 31.3088C81.5466 29.0588 84.866 25.9935 89.0051 24.2692C96.1561 21.2885 105.276 22.8657 109.193 30.0435C109.696 30.9658 110.275 32.9752 111.06 33.5811C111.688 34.0668 112.984 34.1915 113.764 34.4811C118.545 36.2633 120.577 39.1995 120.229 44.3856C120.064 46.8629 118.99 48.6406 118.344 50.9085C117.698 53.1763 117.529 55.0877 116.598 57.2664C115.332 60.2427 112.347 66.3823 110.32 68.6991C108.623 70.6373 106.328 71.9204 104.617 73.8007C101.815 76.8794 99.9344 80.8492 97.0472 84.017H97.0428ZM102.661 31.095C102.167 28.2301 98.5353 27.9049 96.1338 28.0964C95.1358 28.1766 91.6784 28.64 93.1309 30.195C93.4249 30.5069 95.4833 31.7633 95.8487 31.8034C96.272 31.848 99.2616 31.3935 99.4398 31.0994C99.8185 30.489 98.1477 29.1747 97.8537 28.6979C99.8542 28.8806 100.652 31.3712 102.657 31.0994L102.661 31.095ZM84.9952 31.291C84.6164 31.7232 84.9551 32.0217 85.3471 32.2757C86.6972 32.4673 89.1521 34.3207 90.2972 34.3965C91.0368 34.4455 91.5982 33.8039 92.2041 33.4742C92.6274 33.2425 93.4294 33.2737 93.5096 32.6678C93.6789 31.4113 91.362 29.8965 90.266 29.7628C89.1699 29.6291 85.6947 30.5024 84.9952 31.2955V31.291ZM100.527 32.494C99.7873 32.5341 97.1007 32.8994 96.7264 33.4965V33.9509C97.5329 34.6816 98.6556 34.8599 99.5111 35.5193C101.373 36.9539 103.093 42.7639 106.252 40.3178C108.088 38.8965 107.014 36.7623 105.931 35.2519C104.599 33.3895 102.871 32.3648 100.527 32.494ZM104.613 32.4494C106.417 33.6524 107.21 35.2831 108.44 36.9495C110.249 34.3965 107.063 32.1999 104.613 32.4494ZM83.115 33.0821C81.9877 33.198 78.6639 34.744 80.6422 35.9292C81.9432 36.1297 84.1887 37.8227 85.3293 37.8584C86.3095 37.8896 88.4081 36.5396 88.4081 35.5237C88.4081 33.9732 84.358 32.9529 83.115 33.0821ZM95.4566 43.704C95.617 43.5346 96.4591 44.4658 96.5838 44.5995C97.671 45.8114 98.1967 47.451 100.193 47.3129C101.422 47.2282 102.412 46.1277 102.888 45.054C104.1 42.3183 102.198 40.9015 100.741 38.95C98.8294 36.3881 97.5774 34.1871 93.7457 34.7128C92.8947 34.8287 89.8472 36.5039 89.9363 37.4529C90.0254 38.4019 94.2447 41.3871 95.1581 42.2782C95.3497 42.4653 95.6437 42.648 95.6036 42.9554C95.4432 43.1069 93.162 41.9797 92.8012 41.7792C90.7249 40.6208 87.7531 37.3683 85.4496 39.8544C83.1461 42.3406 88.9605 43.4411 89.1477 45.504C86.4432 45.2188 84.6476 41.9396 81.7382 42.2158C80.5219 42.3317 78.41 43.6104 79.0204 45.0495C79.506 46.1857 82.9367 47.4644 83.4447 48.9525C81.6046 49.2332 78.3031 45.8782 76.8372 46.3149C76.1332 46.5243 74.2664 48.3956 74.458 49.1485C74.6496 49.9015 78.1738 52.2184 78.9446 52.9312C79.0694 53.0471 79.5417 53.4525 79.3946 53.6085C77.2961 54.0763 74.605 50.5297 72.756 50.7882C71.5976 50.9485 69.4723 52.9179 69.4812 54.1387C69.4946 55.551 72.4887 56.8253 72.6401 58.4115C70.7867 58.4159 69.2495 55.5288 67.3248 55.7114C66.1975 55.8184 65.0569 57.7743 64.9812 58.7902C64.8431 60.6526 67.4228 62.0427 68.2872 63.513C66.9371 63.0942 64.9723 61.704 63.5599 61.713C62.495 61.7174 60.5391 63.2412 60.2539 64.2615C59.7728 65.9902 63.0342 67.0818 63.4842 68.6189C61.203 68.4808 59.2916 65.6249 56.8812 66.5962C55.9455 66.9749 54.1321 69.0912 54.0341 70.067C53.8514 71.9115 57.6787 73.3907 57.4782 75.3779C55.1435 75.0927 54.5198 71.7066 51.7663 72.2947C50.4385 72.5754 48.2955 75.3868 48.5004 76.6165C48.7544 78.1492 52.8267 80.5462 52.6796 81.3037C52.1316 81.8829 51.1202 81.2012 50.59 80.8447C49.6856 80.2433 47.7385 78.1046 46.7138 78.3274C45.043 78.6838 43.4524 82.4977 43.684 83.9992C43.8979 85.3804 47.4489 86.7215 47.2796 87.6082C47.1014 87.871 46.9009 87.8532 46.6202 87.8309C45.6667 87.7552 44.3702 86.6369 43.292 86.6279C41.8751 86.6146 41.0509 88.9938 41.9642 90.0765C42.6593 90.9007 45.043 92.0993 46.0677 92.879C47.7474 94.1577 50.1356 97.3656 52.4569 95.6414C53.299 95.0131 53.8024 93.8235 53.3168 92.8344C52.6485 91.48 49.7836 89.8938 48.9326 88.4413C51.7262 88.1651 55.6069 94.3849 57.7633 90.2903C59.1891 87.5814 56.4534 85.2512 54.9341 83.4111C54.796 83.2418 54.5688 83.166 54.6356 82.8854C57.6118 82.7561 59.795 88.9002 62.7445 85.8171C65.2797 83.166 61.0336 80.0829 59.7327 78.0111C59.1624 77.1022 59.1757 76.367 60.3252 77.1155C61.9916 78.1982 64.4465 81.9096 66.4025 81.8205C67.6322 81.767 69.0089 80.417 69.1782 79.1918C69.4545 77.1601 67.5208 74.0769 66.3134 72.4774C66.0149 72.0764 63.9163 69.9823 64.2371 69.6749C67.6678 69.7952 68.9466 76.7457 72.4174 76.4338C73.3976 76.3447 74.5159 75.3111 74.7075 74.3665C75.0015 72.9452 74.2976 72.1388 73.5758 71.065C73.0634 70.3031 69.7708 66.1818 70.3901 65.4689C70.702 65.4867 71.0763 65.7853 71.2901 65.9947C72.6045 67.2689 75.1352 71.1496 76.6902 71.5506C77.7595 71.8269 78.8288 71.2655 79.457 70.41C81.7516 67.2912 76.8372 62.6308 75.7946 59.7659C77.96 61.2362 81.5778 67.358 84.6343 64.6268C84.7858 64.4932 85.2803 63.8471 85.3338 63.6734C86.0333 61.4501 81.756 57.9926 81.9476 55.56C82.0546 55.4352 82.7273 55.9699 82.8476 56.0857C83.7966 56.9991 85.5031 60.0377 86.3942 60.4922C87.3566 60.9867 88.8358 60.6748 89.6779 60.06C91.2729 58.8927 90.5378 58.0461 89.7803 56.656C89.4061 55.9699 86.216 51.2827 86.6036 50.904C87.3031 50.8906 87.9625 51.6748 88.4081 52.1738C89.3437 53.2208 90.5823 55.8941 91.7497 56.3397C92.917 56.7852 94.9977 55.4352 94.6413 54.054C94.3517 52.9446 90.4709 48.6317 91.2596 47.754C91.8299 47.7718 92.1774 48.4045 92.5205 48.8188C93.5096 50.0218 94.717 52.6015 95.6838 53.457C96.9269 54.553 97.6398 51.3807 97.7111 50.5253C97.9428 47.6337 96.1962 46.2837 95.4611 43.6995L95.4566 43.704ZM77.5634 36.5396C76.3872 36.6777 73.558 37.7203 73.8699 39.2396C74.0525 40.1262 75.7456 40.4515 76.4451 40.8747C77.0332 41.2312 77.6035 42.0688 78.312 42.1713C79.457 42.3361 81.8407 40.4336 82.3709 39.3955C83.6763 36.8514 79.1585 36.348 77.5634 36.5351V36.5396ZM112.227 48.3154C112.771 47.7896 113.243 45.446 113.296 44.6574C113.421 42.8975 113.14 41.6455 112.343 40.095C111.83 39.1015 109.986 35.7955 109.179 38.1614C109.38 38.7094 109.99 38.8475 110.387 39.2039C112.013 40.6609 113.158 42.648 112.944 44.9069C112.762 45.2366 112.463 44.6975 112.387 44.5594C111.47 42.8752 111.398 39.9213 108.983 39.3732C108.422 40.9327 105.25 42.002 106.782 43.7129C107.611 44.6396 109.015 45.2946 109.946 46.404C110.445 47.001 111.34 49.1797 112.231 48.3198L112.227 48.3154ZM76.659 43.0668C77.3318 42.4208 75.1842 41.3292 74.6986 41.1287C73.4199 40.5985 71.8382 40.3133 70.5015 40.7411C69.4901 41.0663 67.2669 42.5589 67.9842 43.7931C68.2025 44.1718 72.952 46.8584 73.2951 46.8272C74.302 46.7381 76.1466 44.6485 76.6946 43.7842L74.4535 44.6931L73.6961 44.6842C74.2441 43.8153 76.0486 43.6594 76.659 43.0713V43.0668ZM114.744 43.5525C114.37 43.6238 114.147 46.8763 114.228 47.3708C114.299 47.8253 114.909 48.4134 115.324 48.3332C116.313 48.1505 116.224 43.6772 114.744 43.5525ZM104.804 44.9515C104.417 45.2634 103 47.5089 102.732 48.0525C102.113 49.3134 101.971 49.5228 102.75 50.7436C103.766 52.3342 105.392 53.8446 106.413 55.4842C107.264 56.3931 108.324 55.3684 108.894 54.6644C109.821 53.5149 110.881 50.8283 110.583 49.3669C110.356 48.2619 108.645 46.7203 107.749 46.0475C107.103 45.5619 105.584 44.3188 104.809 44.9515H104.804ZM71.5931 47.7584C71.5396 47.5669 71.5441 47.3664 71.4015 47.2015C70.4391 46.1055 67.2802 44.7822 65.8322 44.9114C64.1436 45.0629 61.399 47.0723 61.2297 48.8723C61.3322 49.6253 64.4866 50.8684 65.2886 51.2783C66.8035 52.058 67.1376 53.0515 68.9377 51.7817C69.7797 51.1847 71.6778 48.9881 71.7401 47.9634C71.7535 47.7406 71.5931 47.7673 71.5887 47.754C71.7312 48.1282 69.4144 49.9951 68.9867 50.1822C68.7995 50.2624 68.5946 50.2847 68.5901 50.0797C68.5812 49.7857 70.8045 47.7584 71.1342 47.6649C71.3882 47.5891 71.3837 47.6649 71.5887 47.754L71.5931 47.7584ZM113.43 48.8367C111.523 49.3089 111.799 52.8778 113.475 53.9738C114.437 54.6065 115.159 52.6639 115.248 51.8664C115.377 50.7525 114.972 48.4535 113.43 48.8367ZM64.1748 54.2991C64.5847 53.8045 65.2173 53.408 64.8475 52.7797C64.148 51.599 61.1851 50.4451 59.8485 50.65C58.5119 50.855 55.9544 52.9357 56.547 54.3258C56.8544 55.0476 59.5277 56.255 60.3297 56.852C61.1317 57.4491 61.5416 58.5852 62.749 58.2021C63.3015 58.0238 64.6827 55.7827 64.9723 55.1723C65.1104 54.8872 65.3777 54.3748 65.2173 54.0674L62.8916 56.3174C62.8916 55.4218 63.6802 54.905 64.1792 54.3035L64.1748 54.2991ZM99.1546 54.308C98.6556 54.856 97.7111 55.3238 97.4393 56.108C97.3324 57.2842 101.846 60.0332 102.96 60.1535C104.777 60.354 106.168 58.0372 105.584 56.3129C105.201 55.1857 102.639 51.7327 101.561 51.3184C101.405 51.2604 101.356 51.1802 101.164 51.2738C100.852 51.4253 99.7027 53.7065 99.1546 54.308ZM111.158 53.6441C110.65 53.7421 110.066 55.2169 109.714 55.6357C108.823 56.6961 107.313 57.1684 108.957 58.7946C112.414 62.2164 115.114 54.1431 111.158 53.6486V53.6441ZM57.4826 62.9159C57.1708 62.5862 59.1 60.9956 59.3584 60.6659C60.0312 59.8105 60.3386 59.1021 59.648 58.1219C58.895 57.057 55.5712 55.4976 54.2925 55.7382C52.791 56.0233 50.3984 58.71 51.4321 60.3184L56.449 63.8739C58.3247 64.8318 60.3208 62.2253 60.3341 60.5144C59.9465 60.4253 60.0713 60.6303 59.9465 60.7996C59.2871 61.6951 58.6722 62.6442 57.4826 62.9159ZM96.2809 57.7342C95.1536 57.7743 92.4848 60.1625 93.2734 61.5748C94.1957 62.5417 96.1383 65.6917 97.114 66.2887C99.5556 67.7947 102.536 63.9273 101.846 61.7085C101.561 60.7951 97.2477 57.6986 96.2809 57.7342ZM107.117 59.0441C105.593 60.0021 104.532 61.7753 106.194 63.21C107.081 63.9763 107.727 64.1679 108.716 63.4907C111.452 61.6194 109.246 59.8862 107.117 59.0441ZM46.4286 67.5184C46.8162 67.9239 48.1172 68.5254 48.6786 68.7972C49.1687 69.0333 51.3163 70.0046 51.6683 69.9467C52.8623 69.7506 54.6 66.3065 55.1925 65.2417C53.896 64.0075 51.9668 61.3343 49.9395 61.7531C48.1262 62.1229 44.7534 65.763 46.4286 67.5229V67.5184ZM90.315 62.2031C89.3704 62.3635 88.3056 63.2323 87.7397 63.9808C87.0714 64.8674 86.8575 65.5135 87.1516 66.6407C87.4902 67.9373 91.0368 72.1388 92.2665 72.6333C94.4408 73.5021 97.3234 70.5526 96.918 68.4318C96.6997 67.2957 93.866 63.7536 92.9036 62.9917C92.0794 62.3367 91.4021 62.0204 90.3105 62.2031H90.315ZM104.385 63.2813C103.432 63.2813 101.538 66.0125 101.373 66.8145C101.258 67.3848 102.238 68.4407 102.772 68.5788C104.639 69.0645 107.54 65.9991 106.194 64.257C105.891 63.8605 104.875 63.2813 104.385 63.2813ZM88.8536 76.7234C88.4883 76.2378 90.1011 74.6917 90.1368 74.0992C90.1724 73.4665 89.2858 71.6219 88.916 71.0294C87.9313 69.461 86.0021 68.0264 84.1041 67.8793C82.8209 67.7813 81.6625 69.3452 81.3595 70.4991C81.0966 71.4838 81.3996 72.2368 81.8897 73.1056C82.5001 74.1883 84.0818 76.2957 84.8927 77.3071C86.2783 79.0358 88.8536 78.2517 89.7892 76.5274C89.9185 76.2868 90.3105 75.5338 89.9095 75.3734C89.7759 75.9838 89.4774 76.5185 88.8581 76.7234H88.8536ZM101.258 68.6724C101.155 68.5744 100.505 68.0486 100.456 68.0353C100.188 67.964 98.874 69.1581 98.6111 69.4521C98.0185 70.1115 97.6754 70.9447 97.2789 71.7289C97.2477 72.0497 99.3997 73.5957 99.7695 73.6937C100.527 73.8987 101.008 73.2838 101.463 72.7581C101.779 72.3883 102.568 71.1942 102.634 70.7665C102.701 70.3388 101.587 68.9932 101.258 68.6769V68.6724ZM45.591 69.4076C42.6682 69.7595 40.4182 74.6828 43.5949 75.9794C44.8113 76.4739 46.3752 76.3002 47.3375 75.3556C47.7742 74.9279 49.5608 71.7155 49.6098 71.1853C49.7346 69.8353 46.5756 69.2917 45.591 69.4076ZM83.6006 80.1764C83.614 79.664 84.0372 79.2586 84.0595 78.7507C84.1308 77.1779 81.4219 73.8586 80.0451 73.1502C78.6684 72.4417 76.5431 73.9209 76.4095 75.4715C76.2446 77.3116 78.5971 80.9027 79.9159 82.1368C81.9699 84.0527 83.7699 81.6066 84.5006 79.7309L83.6006 80.1809V80.1764ZM98.4061 74.3754C98.2101 74.1437 96.7487 72.9809 96.4992 72.8917C96.1962 72.7848 94.4185 73.912 94.0576 74.1972C92.4447 75.467 92.4492 76.3759 94.2536 77.4007C95.7284 78.2383 96.4591 78.5947 97.7111 77.2536C98.415 76.5007 99.2037 75.3155 98.4061 74.3754ZM91.3487 76.7368C90.6848 77.3383 90.2081 78.1002 89.4417 78.5903C88.8892 78.9423 86.9199 79.5616 86.9021 80.2477C86.8798 81.2324 90.0477 82.5557 90.8808 82.5824C91.87 82.618 94.6992 81.2858 94.815 80.2299C94.9309 79.174 93.1932 78.6616 92.6185 78.1358C92.3378 77.8774 91.7051 76.6744 91.3487 76.7368ZM41.8395 76.915C38.382 77.4051 38.1414 82.4443 40.9172 82.7205C42.5746 82.8854 42.8687 80.6086 43.5504 79.5259C43.9024 78.969 44.5662 78.4833 44.8247 77.8507C44.8247 76.9462 42.4989 76.8215 41.8395 76.915ZM73.9545 77.8017C72.5911 78.0645 70.4035 80.417 70.6931 81.8962C70.8312 82.6091 75.1397 87.0735 75.8436 87.0423C76.9575 86.9933 78.6461 85.2245 78.7842 84.1373C79.0248 82.2081 76.0709 77.3918 73.959 77.7972L73.9545 77.8017ZM83.3511 83.5314C82.1214 84.8547 82.3798 85.3804 83.6763 86.4765C84.6788 87.3275 84.9239 87.5012 86.1892 87.0468C87.3076 86.6458 90.2704 85.1086 88.6219 83.7809C88.368 83.576 85.8996 82.0299 85.7303 82.0032C85.1912 81.9185 83.7432 83.1081 83.3466 83.5314H83.3511ZM68.7015 82.7606C67.356 83.0413 65.1238 85.0552 65.4134 86.57C65.6406 87.7596 68.853 91.5379 69.958 92.0948C72.3505 93.2933 73.3397 88.673 73.059 87.0423C72.8941 86.0977 70.5416 83.0858 69.6505 82.7962C69.3342 82.6938 69.0223 82.6938 68.7015 82.7606ZM39.2865 83.5091C37.482 83.7675 35.6865 86.276 36.9429 87.8844C37.4598 88.5438 38.9613 88.7532 39.6385 88.2186C40.2489 87.7374 41.1623 85.5542 41.8529 84.8725C42.0177 83.8567 40.0439 83.4022 39.2865 83.5136V83.5091ZM80.112 85.9062C79.4125 86.0398 76.9263 87.7463 76.8461 88.5171C76.7615 89.3547 78.5392 91.0522 79.3367 91.128C81.2971 91.3151 83.3956 88.4057 81.9521 86.6992C81.5823 86.2671 80.6778 85.7948 80.112 85.9017V85.9062ZM63.4441 87.8666C61.9871 88.1651 59.9109 90.375 60.45 91.9968C60.6505 92.5983 63.1366 95.1201 63.7782 95.423C65.3109 96.1404 68.2292 95.5523 68.1312 93.4849C68.0733 92.2552 66.5807 89.8849 65.7431 88.9582C65.0525 88.1918 64.5891 87.6349 63.4485 87.871L63.4441 87.8666ZM75.2912 89.2121C74.9748 89.2433 74.5159 89.7691 74.2976 90.0097C73.9055 90.4418 72.2481 92.7765 72.1099 93.2265C71.7802 94.2691 73.0233 95.1914 74.0303 94.9998C74.6095 94.8884 76.6768 93.8235 77.0778 93.3869C78.4189 91.9255 76.8639 89.6978 75.2912 89.2077V89.2121ZM37.6335 89.6621C34.8266 90.2012 35.7043 95.3428 38.1815 94.2691C39.184 93.8369 39.1974 91.4087 39.8702 90.4552C39.8122 89.8983 38.1103 89.573 37.6335 89.6621ZM41.2335 91.4577C39.8301 91.8587 40.4538 95.031 40.9484 96.0379C42.0222 98.2166 44.0494 99.8251 46.5846 99.5221C48.0415 99.3483 49.4628 97.8869 48.4781 96.4612C47.7786 95.4498 43.3722 92.0814 42.2093 91.6225C41.893 91.4978 41.5855 91.3552 41.2335 91.4577ZM58.0841 101.638C60.4901 102.757 64.099 101.861 63.4218 98.631C63.2035 97.6062 60.5881 93.5562 59.7282 93.0171C58.1331 92.0191 55.3886 94.7904 54.8227 96.2028C54.043 98.1453 56.4133 100.061 58.1777 100.275C60.4544 100.551 61.2297 99.531 62.6644 98.0429C63.3371 97.8958 62.7579 99.2726 62.5619 99.5934C62.0896 100.36 61.1807 100.832 60.3698 101.153L58.0841 101.643V101.638ZM69.7396 94.63C69.1381 94.6656 66.1708 96.8711 66.2109 97.3389C67.4406 99.7582 70.1941 97.5349 71.6778 96.5414C71.5085 95.8552 70.4792 94.5854 69.7396 94.63ZM41.336 99.6246C40.6722 98.7602 39.9771 97.1963 39.4514 96.6349C38.2395 95.3384 36.8583 97.8736 36.8093 99.0543C36.7023 101.759 40.2712 102.347 42.0043 100.943C42.2182 100.302 41.6345 100.017 41.336 99.629V99.6246ZM51.3296 103.443C51.8687 105.185 55.2549 104.935 55.7316 103.416C56.3287 101.509 53.5707 99.2815 53.2767 97.4369C52.1004 97.8379 50.0732 99.3483 50.3361 100.743C50.5856 102.062 51.6014 103.095 53.0183 102.957C53.6554 102.895 54.6311 101.514 54.9074 102.498C55.1836 103.483 53.2455 103.995 52.4881 103.857C52.243 103.813 51.4678 103.327 51.3252 103.443H51.3296ZM48.8524 100.743C48.4158 101.139 47.5915 101.514 47.0167 101.603C45.7603 101.803 43.2563 100.823 44.5128 102.975C46.4286 106.25 50.795 104.263 48.8524 100.738V100.743Z" fill="#4B2E22"/>
<path d="M88.4104 91.8848L80.6534 97.4096C76.4519 100.381 71.7023 102.498 66.7969 104.039C66.9706 103.727 67.3895 103.536 67.6924 103.362C70.6419 101.665 73.9657 100.372 76.9509 98.6615C80.8004 96.4561 84.2267 93.4976 88.4059 91.8848H88.4104Z" fill="#4B2E22"/>
<path d="M111.368 29.1423C108.646 26.0279 105.562 22.2497 101.343 21.2338C94.9494 19.7011 84.3365 24.2769 79.4489 28.5141L77.2969 29.8151C77.9385 28.7992 78.9989 28.0641 79.9523 27.369C85.0939 23.613 94.3435 19.7234 100.742 20.7794C105.139 21.5056 109.528 25.1413 111.368 29.1423Z" fill="#4B2E22"/>
<path d="M106.567 73.8724C108.465 71.756 110.657 69.8803 112.417 67.6436C115.888 63.2238 117.207 57.7792 119.448 52.7624C119.55 52.5351 119.697 52.045 119.92 51.9648C119.853 53.4307 119.314 54.8163 118.793 56.1664C116.645 61.7357 114.288 66.3159 110.39 70.8783L106.562 73.8768L106.567 73.8724Z" fill="#4B2E22"/>
<path d="M32.1175 87.68C31.8279 87.6488 31.8279 87.0785 31.8145 86.8602C31.6764 84.6904 31.6764 81.5137 31.8145 79.3438C32.0507 75.6681 33.6056 72.1349 36.172 69.5195L33.8997 73.3245C31.418 77.8023 33.0309 82.9082 32.122 87.68H32.1175Z" fill="#4B2E22"/>
<path d="M54.4785 109.142C54.4339 109.088 54.4384 108.785 54.572 108.683C55.1735 108.202 57.7532 107.85 58.7201 107.457C59.8607 106.994 60.9656 106.076 62.0973 105.582C64.0711 104.717 62.7924 106.112 62.0305 106.718C60.8097 107.689 58.5953 108.821 57.0626 109.106C56.6438 109.186 54.6834 109.396 54.474 109.142H54.4785Z" fill="#4B2E22"/>
<path d="M74.899 30.4972C74.9658 30.7779 74.7386 30.8536 74.6005 31.0229C72.992 32.9789 68.5588 35.2779 66.242 36.6235C65.9479 36.7928 63.7514 38.1116 63.6445 38.0002C63.6177 37.7551 63.7336 37.5547 63.9073 37.3943C64.941 36.4096 68.0643 34.9304 69.4856 34.0081C70.9069 33.0858 72.9698 31.2858 74.2529 30.6709C74.4712 30.5685 74.6406 30.4437 74.9034 30.4972H74.899Z" fill="#4B2E22"/>
<path d="M52.6811 46.8573L45.4766 57.0603C46.586 54.5074 48.0251 52.0301 49.7048 49.8068C50.1904 49.1653 50.9791 48.136 51.5538 47.6103C51.6741 47.4989 52.5786 46.7548 52.6811 46.8573Z" fill="#4B2E22"/>
<path d="M90.8047 90.2315C93.6517 88.28 96.3428 86.186 98.6864 83.633C99.6176 82.6171 100.322 81.3072 101.458 80.4785C100.442 83.535 97.822 85.6469 95.2913 87.4469C94.1463 88.2622 92.5958 89.3003 91.3884 89.9954C91.1968 90.1023 91.0542 90.285 90.8047 90.236V90.2315Z" fill="#4B2E22"/>
<path d="M38.121 67.5665C37.8091 67.4863 37.8982 67.366 37.916 67.1476C38.121 64.5367 41.7477 60.2862 43.824 58.709C43.1022 60.4243 41.5383 61.7387 40.4601 63.2268C39.5289 64.5145 38.5977 66.0516 38.121 67.5665Z" fill="#4B2E22"/>
<path d="M120.824 48.5063C120.512 48.4261 120.601 48.3058 120.619 48.0875C120.708 46.9692 121.3 45.5791 121.407 44.3583C121.599 42.1083 120.913 40.3706 120.227 38.2988C120.939 38.8558 121.318 40.0988 121.532 40.9721C122.187 43.6409 121.88 46.0023 120.824 48.5063Z" fill="#4B2E22"/>
<path d="M29.5656 92.0321C29.7082 92.9277 29.3028 93.7118 29.1602 94.5539C28.8483 96.4074 28.6701 98.2965 28.2958 100.141C28.2334 100.449 28.2112 101.433 27.7656 101.34C28.1443 98.5326 28.2869 95.0307 29.227 92.3663C29.3117 92.1257 29.1468 91.9653 29.5656 92.0366V92.0321Z" fill="#4B2E22"/>
<path d="M41.125 107.639C40.7686 107.946 34.874 106.953 34.375 105.914C34.5933 105.598 35.1191 105.848 35.4265 105.914C36.4735 106.142 37.4983 106.578 38.5676 106.823C38.7324 106.859 41.7354 107.109 41.125 107.639Z" fill="#4B2E22"/>
<path d="M30.3203 108.994C30.4005 108.789 31.0956 108.74 31.3139 108.713C33.7287 108.415 37.4357 108.361 39.8327 108.713C40.002 108.74 40.5322 108.767 40.5278 108.994H30.3203Z" fill="#4B2E22"/>
<path d="M60.9372 39.8003C61.0886 39.9295 59.5515 41.2795 59.3555 41.4444C58.1614 42.478 56.8337 43.4092 55.5327 44.3003C55.3366 44.0864 56.8916 42.5538 57.1099 42.3533C57.5154 41.979 60.6119 39.5285 60.9327 39.8003H60.9372Z" fill="#4B2E22"/>
<path d="M30.4701 99.6868C30.2563 99.9051 30.1983 99.6734 30.1716 99.464C30.0914 98.8625 30.2384 97.41 30.3231 96.7595C30.4211 95.9976 30.5949 95.1333 30.8132 94.3981C30.8845 94.162 30.9602 93.6006 31.2186 93.5293C31.2543 95.5966 30.8934 97.664 30.4657 99.6823L30.4701 99.6868Z" fill="#4B2E22"/>
<path d="M30.9203 102.689C31.2188 103.727 27.8104 106.668 27.3203 106.289C27.4228 106.102 27.5698 105.857 27.7124 105.705C28.5901 104.779 29.5391 103.963 30.4124 103.001C30.5639 102.836 30.6352 102.627 30.9248 102.689H30.9203Z" fill="#4B2E22"/>
<path d="M106.123 74.3208C105.21 75.4569 104.31 77.1589 103.272 78.148C103.071 78.3396 102.822 78.549 102.523 78.5223C103.192 77.0877 104.386 75.6396 105.598 74.6193C105.767 74.4767 105.843 74.254 106.123 74.3208Z" fill="#4B2E22"/>
<path d="M52.0779 108.095C52.1358 108.403 51.9398 108.452 51.7126 108.554C50.7858 108.973 48.5314 109.12 48.0234 108.02L52.0779 108.095Z" fill="#4B2E22"/>
<path d="M46.078 107.796C46.0201 108.068 45.7839 108.072 45.5567 108.099C44.6745 108.201 42.8745 108.13 42.625 107.043L46.078 107.796Z" fill="#4B2E22"/>
<path d="M119.469 35.2953C119.242 35.4824 117.259 33.8383 117.219 33.3482C117.776 33.1165 119.611 35.1794 119.469 35.2953Z" fill="#4B2E22"/>
<path d="M91.703 100.138C91.6361 99.8569 91.801 99.7232 91.9079 99.5182C92.5228 98.3331 95.7307 95.3613 96.8847 94.439C98.3372 93.2806 101.968 90.5405 103.51 89.8053C103.759 89.685 103.991 89.489 104.241 89.7741C104.561 90.2464 103.929 90.7009 103.63 90.9771C101.634 92.8172 98.6446 94.5459 96.4347 96.3905C95.2584 97.3752 94.1089 98.7653 92.8881 99.5984C92.5317 99.8435 92.1663 100.182 91.703 100.138Z" fill="#4B2E22"/>
<path d="M102.212 93.8359C100.425 95.7741 97.9658 96.9058 95.9876 98.6434C94.9138 99.5835 93.9781 100.786 92.9088 101.718C90.0172 104.248 86.542 105.647 83.2538 107.523C81.2712 108.655 79.4979 110.205 77.2969 110.945C78.9187 109.648 80.5093 108.254 82.2603 107.131C87.139 104.008 92.9445 102.662 96.4376 97.5919L102.212 93.8359Z" fill="#4B2E22"/>
<path d="M122.927 62.916C122.651 64.0878 122.049 65.1571 121.506 66.222C119.884 69.3943 117.603 73.3685 115.268 76.0463C115.023 76.327 113.25 78.2161 113.094 78.225C112.671 78.2473 113.192 77.2983 113.254 77.1869C114.667 74.6339 117.358 71.5908 119.055 69.0334C119.532 68.3116 120.036 67.6032 120.494 66.868C121.301 65.5848 121.885 64.0076 122.923 62.9205L122.927 62.916Z" fill="#4B2E22"/>
<path d="M83.8984 102.387C84.6559 101.745 85.6316 101.389 86.4692 100.832C89.441 98.8626 91.8604 95.8819 94.7163 93.77C96.5787 92.3933 98.7441 91.2972 100.664 89.965C101.854 89.1408 102.914 88.1294 104.157 87.3809L102.362 89.2611C99.8713 91.4398 96.7525 92.6962 94.1193 94.6745C90.7019 97.2364 88.1089 101.077 83.8984 102.391V102.387Z" fill="#4B2E22"/>
<path d="M103.715 92.6335C105.302 90.9092 107.382 89.7419 109.191 88.2761C110.537 87.1845 112.234 85.781 113.455 84.578C114.916 83.1389 115.883 81.2899 117.371 79.873C116.186 83.5221 113.571 86.0795 110.18 87.7681L103.711 92.6291L103.715 92.6335Z" fill="#4B2E22"/>
<path d="M105.664 86.1773C107.665 84.3773 109.032 82.0515 110.917 80.1758C110.463 82.1629 108.631 83.4817 107.317 84.9075L105.664 86.1818V86.1773Z" fill="#4B2E22"/>
<path d="M32.4247 47.6027C32.3846 47.3532 32.7856 47.4423 32.9549 47.4468C34.14 47.4869 35.4366 48.1686 36.595 48.4626C37.5396 48.6988 41.2465 49.2914 41.7232 49.6389C42.4762 50.1869 41.6475 50.3295 41.0594 50.3072C38.2881 50.1958 34.9732 48.6319 32.4291 47.6027H32.4247Z" fill="#4B2E22"/>
<path d="M28.0654 44.306L27.9896 44.6045C25.5391 43.9228 23.0129 43.3436 20.598 42.5416C19.7381 42.2564 18.7935 41.9446 17.9782 41.5569C17.7376 41.4411 17.2475 41.2139 17.1094 41C18.6242 41.1604 20.0143 41.8599 21.4624 42.2743C23.6767 42.9069 26.0069 43.2233 28.0654 44.3015V44.306Z" fill="#4B2E22"/>
<path d="M44.1279 47.4557C42.4527 47.5582 40.8042 47.2998 39.1735 46.9344C38.1442 46.7027 36.6828 46.5022 36.0234 45.6602C37.3512 45.9186 38.6744 46.3597 40.02 46.5423C41.1116 46.6894 42.916 46.5512 43.874 46.8943C44.1859 47.0057 44.1502 47.1839 44.1324 47.4602L44.1279 47.4557Z" fill="#4B2E22"/>
<path d="M44.8352 45.8475C44.8753 45.8831 45.0446 46.244 45.0268 46.2574C42.7367 46.2885 40.0812 46.1237 38.005 45.0945C37.8045 44.9965 37.5906 45.1925 37.6753 44.7559C38.9495 44.9341 40.2238 45.188 41.5025 45.3529C42.2911 45.4554 44.2382 45.3217 44.8352 45.8475Z" fill="#4B2E22"/>
<path d="M42.9213 48.3678L42.8411 48.8223C41.8564 49.5441 36.8396 47.8955 35.7212 47.2317C35.5297 47.1158 35.3425 47.2584 35.4272 46.8574C36.7638 47.2406 38.2297 47.7842 39.5975 48.0158C40.7425 48.2119 41.8074 48.1406 42.9213 48.3723V48.3678Z" fill="#4B2E22"/>
<path d="M28.3717 45.954L21.6172 43.8555C23.3058 44.0649 25.0479 44.2075 26.6831 44.7154C27.289 44.9025 28.4385 45.1565 28.3672 45.954H28.3717Z" fill="#4B2E22"/>
<path d="M24.6171 54.6596C23.7438 54.4903 22.9775 53.9735 22.229 53.5234C19.128 51.6655 15.4879 47.9898 13.1354 45.2095C12.9171 44.9511 11.3755 43.1511 11.5626 42.9551C11.8611 42.9551 12.1596 43.2313 12.3824 43.4095C16.5215 46.6843 20.3265 50.2531 24.0958 53.9066C24.2161 54.0225 24.7731 54.5126 24.6171 54.6596Z" fill="#4B2E22"/>
<path d="M37.3696 57.2128C34.5537 56.2816 31.6487 55.3193 29.0156 53.9381C28.4185 53.6262 27.3626 53.047 26.8769 52.6237C26.7032 52.4722 26.5071 52.392 26.565 52.1113C28.1066 52.7574 29.5814 53.5727 31.1141 54.2366C32.7715 54.9584 34.674 55.5331 36.2691 56.2861C36.425 56.3618 37.6547 56.9099 37.3651 57.2128H37.3696Z" fill="#4B2E22"/>
<path d="M95.4571 43.7036C96.1878 46.2834 97.9388 47.6378 97.7072 50.5294C97.6403 51.3849 96.923 54.5572 95.6799 53.4611C94.7131 52.6057 93.5057 50.026 92.5165 48.823C92.1779 48.4086 91.8259 47.7759 91.2556 47.7581C90.467 48.6359 94.3522 52.9487 94.6373 54.0582C94.9982 55.4438 92.8953 56.7849 91.7457 56.3438C90.5962 55.9027 89.3398 53.225 88.4041 52.1779C87.9586 51.6789 87.2992 50.8948 86.5997 50.9081C86.2121 51.2869 89.4022 55.974 89.7764 56.6602C90.5383 58.0458 91.269 58.8968 89.674 60.0641C88.8319 60.679 87.3526 60.9909 86.3903 60.4963C85.4992 60.0419 83.7927 57.0032 82.8437 56.0899C82.7279 55.9785 82.0506 55.4394 81.9437 55.5641C81.7477 57.9968 86.0249 61.4542 85.3299 63.6775C85.2764 63.8468 84.7818 64.4929 84.6304 64.631C81.5784 67.3622 77.9561 61.2359 75.7907 59.7701C76.8333 62.6349 81.7477 67.2909 79.4531 70.4142C78.8204 71.2741 77.7511 71.831 76.6863 71.5548C75.1313 71.1538 72.6006 67.2731 71.2862 65.9988C71.0724 65.7894 70.6981 65.4909 70.3862 65.4731C69.7625 66.1859 73.055 70.3073 73.5719 71.0691C74.2937 72.1429 74.9976 72.9493 74.7036 74.3706C74.5075 75.3152 73.3892 76.3489 72.4135 76.438C68.9426 76.7499 67.6639 69.7949 64.2332 69.679C63.9124 69.9865 66.0065 72.0805 66.3095 72.4815C67.5169 74.0855 69.4506 77.1642 69.1743 79.1959C69.0095 80.4212 67.6283 81.7712 66.3986 81.8246C64.4426 81.9137 61.9877 78.2023 60.3213 77.1197C59.1673 76.3711 59.154 77.1018 59.7287 78.0152C61.0297 80.087 65.2758 83.1746 62.7406 85.8212C59.7911 88.9044 57.6079 82.7603 54.6317 82.8895C54.5648 83.1702 54.7921 83.2459 54.9302 83.4152C56.4495 85.2554 59.1852 87.5856 57.7594 90.2945C55.603 94.3891 51.7223 88.1692 48.9287 88.4455C49.7797 89.898 52.6445 91.4841 53.3129 92.8386C53.803 93.8277 53.295 95.0217 52.453 95.6455C50.1317 97.3698 47.7391 94.1618 46.0638 92.8831C45.0435 92.1034 42.6554 90.9049 41.9603 90.0806C41.0514 89.0024 41.8712 86.6187 43.2881 86.6321C44.3663 86.641 45.6628 87.7593 46.6163 87.8351C46.897 87.8573 47.0975 87.8752 47.2757 87.6123C47.445 86.7257 43.894 85.3846 43.6801 84.0034C43.4485 82.5019 45.0391 78.688 46.7099 78.3316C47.7391 78.1132 49.6817 80.2519 50.5861 80.8489C51.1208 81.2009 52.1322 81.8826 52.6757 81.3078C52.8272 80.5504 48.7505 78.1533 48.4965 76.6207C48.2915 75.3865 50.4346 72.5795 51.7624 72.2989C54.5158 71.7107 55.1396 75.0969 57.4743 75.382C57.6748 73.3994 53.8475 71.9157 54.0302 70.0711C54.1282 69.0998 55.9416 66.979 56.8772 66.6003C59.2876 65.629 61.199 68.4894 63.4802 68.6231C63.0302 67.0904 59.7688 65.9944 60.25 64.2656C60.5307 63.2453 62.4911 61.7216 63.556 61.7171C64.9728 61.7082 66.9332 63.0983 68.2832 63.5171C67.4189 62.0468 64.8392 60.6567 64.9773 58.7943C65.053 57.7785 66.1936 55.827 67.3209 55.7156C69.2456 55.5329 70.7783 58.4201 72.6362 58.4156C72.4892 56.8295 69.4907 55.5507 69.4773 54.1428C69.4639 52.922 71.5937 50.9527 72.7521 50.7923C74.6011 50.5339 77.2922 54.0804 79.3907 53.6126C79.5378 53.4611 79.0655 53.0512 78.9407 52.9354C78.1699 52.2225 74.6456 49.8967 74.4541 49.1527C74.2625 48.4086 76.1293 46.5284 76.8333 46.319C78.2991 45.8824 81.6006 49.2373 83.4407 48.9566C82.9328 47.4685 79.5021 46.1898 79.0165 45.0537C78.4061 43.6145 80.518 42.3358 81.7343 42.22C84.6437 41.9437 86.4437 45.2185 89.1437 45.5081C88.9522 43.4452 83.1957 42.2824 85.4457 39.8586C87.6957 37.4348 90.721 40.6249 92.7972 41.7833C93.1537 41.9838 95.4393 43.1111 95.5997 42.9596C95.6398 42.6522 95.3458 42.4695 95.1542 42.2824C94.2408 41.3913 90.0215 38.4239 89.9324 37.4571C89.8433 36.4902 92.8908 34.8328 93.7418 34.717C97.5735 34.1912 98.8255 36.3922 100.737 38.9541C102.194 40.9056 104.096 42.3269 102.884 45.0581C102.408 46.1319 101.419 47.2324 100.189 47.317C98.1928 47.4552 97.6715 45.82 96.5799 44.6037C96.4552 44.4655 95.6131 43.5388 95.4527 43.7081L95.4571 43.7036ZM95.9027 46.2566C95.6487 46.2433 95.573 46.1764 95.6086 46.4705C95.7022 47.2725 96.3438 48.1769 96.4641 49.068C96.5577 49.7631 96.4195 50.4849 96.5042 51.1354C96.5309 51.3448 96.5888 51.572 96.8027 51.3581C97.5512 49.6027 96.727 47.8205 95.9027 46.2566ZM84.5011 63.3656C84.5992 61.8909 83.8417 60.0953 82.7011 59.1641C82.7502 60.0819 83.4764 60.8438 83.8239 61.7171C83.9843 62.1226 84.0155 62.6171 84.1625 63.0359C84.2472 63.2765 84.0823 63.4369 84.5011 63.3656ZM78.9496 69.5186C79.7962 68.7657 79.2927 67.077 78.9274 66.1637C78.8739 66.03 78.2947 64.7335 78.0452 65.0186C77.9917 65.8473 78.6377 66.6003 78.758 67.38C78.8694 68.0929 78.6778 68.8236 78.9452 69.5186H78.9496ZM68.4392 79.2761C68.9605 77.5429 68.1362 75.3152 66.7907 74.1746C66.755 75.2706 67.655 76.1662 67.9491 77.1419C68.1407 77.7835 68.0872 78.2558 68.1763 78.8662C68.1941 78.9954 68.2431 79.3162 68.4392 79.2761ZM57.0332 86.9306C56.8104 85.4336 55.1886 83.687 53.7317 83.3306L57.0332 86.9306Z" fill="#F2E4D2"/>
<path d="M90.3192 62.2035C91.4108 62.0209 92.088 62.3372 92.9123 62.9921C93.8747 63.754 96.7128 67.2961 96.9267 68.4323C97.3321 70.5531 94.4494 73.5071 92.2751 72.6338C91.0454 72.1392 87.4989 67.9377 87.1603 66.6412C86.8662 65.5139 87.0801 64.8634 87.7484 63.9813C88.3098 63.2327 89.3791 62.3639 90.3236 62.2035H90.3192Z" fill="#F2E4D2"/>
<path d="M88.8593 76.7235C89.4786 76.5185 89.7771 75.9839 89.9108 75.3735C90.3118 75.5339 89.9197 76.2913 89.7905 76.5275C88.8548 78.2562 86.284 79.0359 84.8939 77.3072C84.083 76.2958 82.5013 74.1883 81.8909 73.1057C81.4008 72.2413 81.1023 71.4839 81.3607 70.4992C81.6682 69.3452 82.8221 67.7814 84.1053 67.8794C86.0033 68.0264 87.9326 69.4611 88.9172 71.0294C89.287 71.6175 90.1737 73.4621 90.138 74.0992C90.1024 74.6918 88.4895 76.2378 88.8548 76.7235H88.8593Z" fill="#F2E4D2"/>
<path d="M104.812 44.9515C105.591 44.3188 107.106 45.5574 107.752 46.0475C108.648 46.7203 110.359 48.2663 110.586 49.3668C110.889 50.8282 109.824 53.5149 108.897 54.6644C108.332 55.3684 107.271 56.3931 106.416 55.4842C105.391 53.8446 103.769 52.3342 102.753 50.7436C101.974 49.5228 102.116 49.3134 102.736 48.0525C103.003 47.5089 104.424 45.2634 104.807 44.9515H104.812Z" fill="#F2E4D2"/>
<path d="M83.6056 80.1765L84.5056 79.7265C83.7749 81.6022 81.9749 84.0527 79.9209 82.1324C78.6021 80.8983 76.2496 77.3072 76.4145 75.4671C76.5526 73.921 78.6333 72.424 80.0501 73.1458C81.467 73.8675 84.1358 77.1735 84.0645 78.7463C84.0422 79.2542 83.619 79.6596 83.6056 80.172V80.1765Z" fill="#F2E4D2"/>
<path d="M96.2837 57.7327C97.2505 57.6971 101.563 60.7936 101.849 61.707C102.539 63.9258 99.5585 67.7932 97.1169 66.2872C96.1456 65.6857 94.1985 62.5402 93.2762 61.5733C92.4876 60.1654 95.1565 57.7773 96.2837 57.7327Z" fill="#F2E4D2"/>
<path d="M57.4816 62.9144C58.6712 62.6426 59.286 61.6891 59.9454 60.798C60.0702 60.6287 59.9454 60.4238 60.3331 60.5129C60.3197 62.2238 58.3236 64.8302 56.4479 63.8723L51.431 60.3168C50.3974 58.7084 52.7899 56.0218 54.2914 55.7366C55.5702 55.4916 58.8939 57.0554 59.6469 58.1203C60.342 59.1005 60.0301 59.8089 59.3573 60.6644C59.0989 60.9941 57.1697 62.5847 57.4816 62.9144Z" fill="#F2E4D2"/>
<path d="M71.6012 47.7576C71.6012 47.7576 71.766 47.7443 71.7526 47.9671C71.6858 48.9918 69.7922 51.1884 68.9502 51.7854C67.1501 53.0597 66.816 52.0616 65.3011 51.2819C64.4991 50.8676 61.3447 49.6289 61.2422 48.876C61.407 47.076 64.1561 45.0665 65.8447 44.9151C67.2927 44.7858 70.4516 46.1047 71.414 47.2052C71.5566 47.37 71.5521 47.5705 71.6056 47.7621C71.4007 47.673 71.4096 47.5972 71.1512 47.673C70.8214 47.771 68.5982 49.7938 68.6071 50.0879C68.6115 50.2928 68.8165 50.2705 69.0036 50.1903C69.4313 50.0032 71.7482 48.1319 71.6056 47.7621L71.6012 47.7576Z" fill="#F2E4D2"/>
<path d="M58.0861 101.637L60.3717 101.147C61.1826 100.826 62.0915 100.354 62.5638 99.5877C62.7599 99.2669 63.3391 97.8902 62.6663 98.0372C61.2316 99.5253 60.4519 100.546 58.1796 100.269C56.4153 100.056 54.045 98.1397 54.8247 96.1971C55.3905 94.7847 58.1351 92.0178 59.7301 93.0114C60.5901 93.5461 63.2054 97.5961 63.4237 98.6253C64.1054 101.856 60.492 102.751 58.0861 101.633V101.637Z" fill="#F2E4D2"/>
<path d="M73.9553 77.8015C76.0716 77.396 79.0256 82.2124 78.7806 84.1416C78.6425 85.2243 76.9538 86.9931 75.84 87.0466C75.136 87.0777 70.8276 82.6134 70.6894 81.9005C70.4043 80.4168 72.5875 78.0643 73.9508 77.8059L73.9553 77.8015Z" fill="#F2E4D2"/>
<path d="M46.4301 67.5182C44.7548 65.7582 48.1276 62.1226 49.941 61.7483C51.9682 61.334 53.8974 64.0028 55.194 65.237C54.6014 66.3018 52.8638 69.7459 51.6697 69.9419C51.3177 69.9999 49.1702 69.0286 48.6801 68.7924C48.1187 68.5206 46.8177 67.9236 46.4301 67.5137V67.5182ZM54.4811 65.6157C54.089 65.6691 53.7638 66.2305 53.5232 66.5291C53.1489 66.9924 52.6588 67.585 52.5341 68.1642C52.8326 68.4716 54.8643 66.2127 54.4856 65.6157H54.4811Z" fill="#F2E4D2"/>
<path d="M100.527 32.4933C102.871 32.3641 104.599 33.3889 105.932 35.2513C107.014 36.7617 108.088 38.8958 106.252 40.3171C103.089 42.7632 101.374 36.9533 99.5112 35.5186C98.6558 34.8592 97.533 34.681 96.7266 33.9503V33.4958C97.1053 32.8988 99.7875 32.5334 100.532 32.4933H100.527Z" fill="#F2E4D2"/>
<path d="M68.7044 82.7608C69.0252 82.6939 69.3371 82.6895 69.6534 82.7964C70.5445 83.086 72.897 86.0979 73.0618 87.0425C73.3425 88.6732 72.3534 93.289 69.9608 92.095C68.8559 91.5425 65.6435 87.7598 65.4163 86.5702C65.1266 85.0553 67.3588 83.0459 68.7044 82.7608ZM72.3445 89.7826C72.9638 88.4415 73.0886 86.6682 71.7475 85.7326C71.7386 86.4053 72.3044 87.3098 72.3356 87.9202C72.3579 88.3969 72.046 89.0162 72.0415 89.5598C72.0415 89.8583 72.0594 89.8004 72.3445 89.787V89.7826Z" fill="#F2E4D2"/>
<path d="M99.1547 54.3075C99.7027 53.7061 100.852 51.4249 101.164 51.2734C101.36 51.1798 101.405 51.26 101.561 51.3179C102.639 51.7323 105.201 55.1853 105.584 56.3125C106.163 58.0368 104.778 60.3492 102.96 60.1531C101.846 60.0328 97.3324 57.2838 97.4394 56.1076C97.7156 55.3189 98.6557 54.8556 99.1547 54.3075Z" fill="#F2E4D2"/>
<path d="M64.1803 54.2994C63.6813 54.9009 62.8927 55.4177 62.8927 56.3132L65.2184 54.0632C65.3788 54.3706 65.1115 54.883 64.9734 55.1682C64.6793 55.7786 63.3026 58.0197 62.7501 58.1979C61.5427 58.5811 61.1239 57.4449 60.3308 56.8479C59.5377 56.2509 56.86 55.0434 56.5481 54.3216C55.9555 52.9315 58.5308 50.8464 59.8496 50.6459C61.1684 50.4454 64.1491 51.5993 64.8486 52.7756C65.2229 53.4038 64.5858 53.8048 64.1759 54.2949L64.1803 54.2994Z" fill="#F2E4D2"/>
<path d="M63.4452 87.8673C64.5858 87.6312 65.0492 88.1881 65.7398 88.9545C66.5774 89.8812 68.07 92.2515 68.1279 93.4812C68.2259 95.5486 65.3076 96.1367 63.7749 95.4194C63.1333 95.1208 60.6471 92.5946 60.4467 91.9931C59.9075 90.3713 61.9838 88.1659 63.4407 87.8629L63.4452 87.8673Z" fill="#F2E4D2"/>
<path d="M41.2348 91.4569C41.5913 91.3545 41.8942 91.497 42.2106 91.6218C43.3734 92.0807 47.7799 95.4446 48.4794 96.4604C49.4641 97.8862 48.0428 99.3476 46.5858 99.5213C44.0507 99.8243 42.0234 98.2159 40.9497 96.0372C40.4551 95.0302 39.8313 91.8579 41.2348 91.4569Z" fill="#F2E4D2"/>
<path d="M112.23 48.3146C111.339 49.179 110.439 46.9958 109.944 46.3988C109.013 45.2894 107.61 44.6344 106.781 43.7077C105.248 41.9968 108.425 40.9275 108.982 39.3681C111.397 39.9161 111.468 42.87 112.386 44.5542C112.462 44.6923 112.76 45.2314 112.943 44.9017C113.161 42.6428 112.012 40.6557 110.386 39.1987C109.993 38.8468 109.379 38.7086 109.178 38.1562C109.98 35.7903 111.829 39.0963 112.341 40.0898C113.139 41.6403 113.42 42.8923 113.295 44.6522C113.241 45.4409 112.769 47.7844 112.226 48.3102L112.23 48.3146Z" fill="#F2E4D2"/>
<path d="M45.5883 69.4077C46.573 69.2919 49.7319 69.8355 49.6072 71.1855C49.5581 71.7157 47.7715 74.9281 47.3349 75.3558C46.3725 76.2959 44.8086 76.4741 43.5923 75.9796C40.4155 74.683 42.6655 69.7597 45.5883 69.4077Z" fill="#F2E4D2"/>
<path d="M76.6663 43.066C76.0559 43.6541 74.2515 43.81 73.7034 44.6788L74.4609 44.6877L76.702 43.7788C76.1539 44.6476 74.3094 46.7373 73.3024 46.8219C72.9594 46.8531 68.2098 44.1665 67.9915 43.7877C67.2742 42.5536 69.4975 41.061 70.5089 40.7357C71.8455 40.308 73.4272 40.5976 74.7059 41.1234C75.1916 41.3239 77.3391 42.4155 76.6663 43.0615V43.066Z" fill="#F2E4D2"/>
<path d="M77.569 36.5386C79.1641 36.347 83.6819 36.8505 82.3764 39.399C81.8462 40.4371 79.4626 42.3396 78.3175 42.1748C77.6091 42.0723 77.0388 41.2302 76.4507 40.8782C75.7467 40.4549 74.0536 40.1297 73.8754 39.2431C73.5635 37.7237 76.3928 36.6856 77.569 36.543V36.5386Z" fill="#F2E4D2"/>
<path d="M83.1197 33.0806C84.3628 32.9559 88.4172 33.9717 88.4128 35.5222C88.4128 36.5381 86.3098 37.8881 85.334 37.8569C84.1934 37.8213 81.9479 36.1282 80.6469 35.9277C78.6687 34.7381 81.9924 33.1965 83.1197 33.0806Z" fill="#F2E4D2"/>
<path d="M91.3529 76.7367C91.7094 76.6743 92.342 77.8773 92.6227 78.1357C93.2019 78.6615 94.9351 79.2006 94.8193 80.2298C94.7034 81.259 91.8698 82.6179 90.8851 82.5823C90.0519 82.5556 86.8841 81.2278 86.9064 80.2476C86.9242 79.5615 88.8935 78.9422 89.446 78.5902C90.2123 78.1001 90.6891 77.3382 91.3529 76.7367Z" fill="#F2E4D2"/>
<path d="M85.0011 31.2916C85.7006 30.4986 89.2071 29.6297 90.2719 29.7589C91.3368 29.8882 93.6848 31.4075 93.5155 32.6639C93.4353 33.2699 92.6289 33.2387 92.2101 33.4704C91.6041 33.8001 91.0427 34.4416 90.3031 34.3926C89.1581 34.3169 86.7031 32.4679 85.3531 32.2718C84.961 32.0179 84.6224 31.7194 85.0011 31.2872V31.2916Z" fill="#F2E4D2"/>
<path d="M102.666 31.0944C100.661 31.3662 99.8636 28.8801 97.8631 28.6929C98.1527 29.1697 99.8236 30.484 99.4493 31.0944C99.2666 31.3885 96.2814 31.843 95.8582 31.7984C95.4928 31.7628 93.4344 30.5063 93.1403 30.19C91.6879 28.6395 95.1453 28.1716 96.1433 28.0914C98.5448 27.8999 102.176 28.2251 102.671 31.09L102.666 31.0944Z" fill="#F2E4D2"/>
<path d="M83.3553 83.531C83.7519 83.1033 85.1999 81.9137 85.739 82.0028C85.9083 82.0295 88.3722 83.5756 88.6306 83.7805C90.2791 85.1083 87.3162 86.6498 86.1979 87.0464C84.9326 87.5008 84.6875 87.3226 83.685 86.4761C82.3885 85.38 82.1301 84.8543 83.3598 83.531H83.3553Z" fill="#F2E4D2"/>
<path d="M41.8424 76.9144C42.5018 76.8208 44.832 76.95 44.8276 77.85C44.5691 78.4827 43.9008 78.9684 43.5533 79.5253C42.8716 80.608 42.5775 82.8892 40.9201 82.7199C38.1443 82.4392 38.3849 77.4045 41.8424 76.9144Z" fill="#F2E4D2"/>
<path d="M51.3327 103.442C51.4753 103.326 52.2505 103.811 52.4956 103.856C53.253 103.994 55.1778 103.437 54.9149 102.497C54.652 101.557 53.6674 102.893 53.0258 102.956C51.6089 103.094 50.5931 102.06 50.3436 100.742C50.0807 99.3469 52.1079 97.8365 53.2842 97.4355C53.5782 99.2801 56.3362 101.508 55.7391 103.415C55.2624 104.934 51.8763 105.184 51.3371 103.442H51.3327Z" fill="#F2E4D2"/>
<path d="M98.4081 74.3756C99.2057 75.3157 98.417 76.5008 97.7131 77.2538C96.4611 78.5949 95.7304 78.2429 94.2556 77.4008C92.4512 76.3761 92.4467 75.4672 94.0596 74.1973C94.4205 73.9122 96.2027 72.785 96.5012 72.8919C96.7507 72.981 98.2121 74.1439 98.4081 74.3756Z" fill="#F2E4D2"/>
<path d="M75.298 89.2109C76.8663 89.701 78.4213 91.9288 77.0846 93.3902C76.6836 93.8268 74.6163 94.8917 74.0371 95.003C73.0257 95.1946 71.7871 94.2679 72.1168 93.2298C72.2594 92.7798 73.9168 90.4451 74.3044 90.0129C74.5227 89.7723 74.9817 89.2421 75.298 89.2154V89.2109Z" fill="#F2E4D2"/>
<path d="M80.1203 85.9061C80.6862 85.7991 81.5906 86.267 81.9604 86.7036C83.404 88.4056 81.3055 91.3195 79.3451 91.1323C78.5476 91.0566 76.7698 89.3635 76.8545 88.5214C76.9347 87.7462 79.4208 86.0442 80.1203 85.9105V85.9061Z" fill="#F2E4D2"/>
<path d="M111.161 53.6431C115.117 54.1377 112.417 62.211 108.96 58.7892C107.315 57.1629 108.826 56.6907 109.717 55.6303C110.069 55.2115 110.653 53.7367 111.161 53.6387V53.6431Z" fill="#F2E4D2"/>
<path d="M101.26 68.672C101.594 68.9883 102.699 70.3517 102.637 70.7616C102.575 71.1715 101.782 72.3789 101.465 72.7532C101.015 73.2834 100.534 73.8938 99.7721 73.6888C99.4068 73.5908 97.2548 72.0492 97.2815 71.724C97.678 70.9398 98.0211 70.1066 98.6137 69.4472C98.8766 69.1576 100.191 67.9591 100.458 68.0304C100.507 68.0438 101.158 68.5695 101.26 68.6675V68.672Z" fill="#F2E4D2"/>
<path d="M104.389 63.2812C104.879 63.2812 105.89 63.8605 106.197 64.257C107.539 65.9991 104.638 69.0644 102.776 68.5788C102.241 68.4407 101.261 67.3847 101.377 66.8144C101.541 66.0125 103.435 63.2812 104.389 63.2812Z" fill="#F2E4D2"/>
<path d="M39.2867 83.5095C40.0397 83.4026 42.0179 83.8526 41.853 84.8685C41.1624 85.5546 40.2446 87.7333 39.6387 88.2145C38.9614 88.7492 37.4599 88.5398 36.9431 87.8804C35.6867 86.2719 37.4822 83.7635 39.2867 83.5051V83.5095Z" fill="#F2E4D2"/>
<path d="M41.3416 99.6237C41.6401 100.011 42.2238 100.296 42.0099 100.938C40.2768 102.346 36.7079 101.753 36.8149 99.0489C36.8639 97.8682 38.2406 95.3375 39.4569 96.6296C39.9827 97.191 40.6777 98.7549 41.3416 99.6192V99.6237Z" fill="#F2E4D2"/>
<path d="M107.123 59.043C109.253 59.8851 111.459 61.6182 108.723 63.4895C107.734 64.1668 107.083 63.9752 106.201 63.2088C104.539 61.7742 105.6 60.0009 107.123 59.043Z" fill="#F2E4D2"/>
<path d="M37.6414 89.6605C38.1182 89.5669 39.8202 89.8922 39.8781 90.4535C39.2053 91.4115 39.1919 93.8352 38.1895 94.2674C35.7122 95.3412 34.8345 90.1996 37.6414 89.6605Z" fill="#F2E4D2"/>
<path d="M48.8565 100.742C50.799 104.266 46.4327 106.254 44.5168 102.979C43.2559 100.822 45.7644 101.807 47.0208 101.607C47.5956 101.513 48.4198 101.139 48.8565 100.747V100.742Z" fill="#F2E4D2"/>
<path d="M113.433 48.8356C114.975 48.4524 115.38 50.7514 115.251 51.8653C115.157 52.6628 114.44 54.6054 113.478 53.9727C111.802 52.8767 111.526 49.3078 113.433 48.8356Z" fill="#F2E4D2"/>
<path d="M69.7401 94.63C70.4797 94.5855 71.5134 95.8553 71.6782 96.5414C70.1945 97.535 67.441 99.7583 66.2113 97.339C66.1712 96.8756 69.1386 94.6701 69.7401 94.63Z" fill="#F2E4D2"/>
<path d="M104.617 32.4491C107.068 32.1996 110.253 34.3961 108.444 36.9491C107.215 35.2827 106.422 33.6565 104.617 32.4491Z" fill="#F2E4D2"/>
<path d="M114.752 43.5508C116.226 43.6755 116.32 48.1488 115.331 48.3315C114.912 48.4072 114.306 47.8236 114.235 47.3691C114.155 46.8746 114.382 43.6265 114.752 43.5508Z" fill="#F2E4D2"/>
<path d="M68.4386 79.2753C68.2426 79.3154 68.198 78.9946 68.1757 78.8654C68.0822 78.255 68.1401 77.7872 67.9485 77.1412C67.6545 76.161 66.7544 75.2699 66.7901 74.1738C68.1356 75.3189 68.9599 77.5422 68.4386 79.2753Z" fill="#4B2E22"/>
<path d="M95.9039 46.2562C96.7282 47.82 97.5569 49.6022 96.8039 51.3577C96.5901 51.576 96.5321 51.3443 96.5054 51.1349C96.4208 50.4844 96.5633 49.7626 96.4653 49.0676C96.345 48.1765 95.7034 47.272 95.6099 46.47C95.5742 46.176 95.65 46.2428 95.9039 46.2562Z" fill="#4B2E22"/>
<path d="M57.0359 86.9301L53.7344 83.3301C55.1913 83.6865 56.8131 85.4331 57.0359 86.9301Z" fill="#4B2E22"/>
<path d="M78.95 69.5174C78.6827 68.8224 78.8743 68.0872 78.7629 67.3788C78.6426 66.5991 77.9965 65.8461 78.05 65.0174C78.2951 64.7323 78.8787 66.0288 78.9322 66.1625C79.2975 67.0758 79.7966 68.7645 78.9545 69.5174H78.95Z" fill="#4B2E22"/>
<path d="M84.5031 63.3656C84.0843 63.4369 84.2492 63.2765 84.1645 63.0359C84.0175 62.6171 83.9818 62.1225 83.8259 61.7171C83.4828 60.8393 82.7521 60.0774 82.7031 59.1641C83.8393 60.0953 84.5967 61.8908 84.5031 63.3656Z" fill="#4B2E22"/>
<path d="M54.4827 65.6152C54.8615 66.2123 52.8298 68.4712 52.5312 68.1638C52.6605 67.5846 53.1506 66.992 53.5204 66.5286C53.761 66.2301 54.0862 65.6642 54.4783 65.6152H54.4827Z" fill="#4B2E22"/>
<path d="M72.3471 89.781C72.062 89.7944 72.0442 89.8523 72.0442 89.5538C72.0442 89.0102 72.365 88.3909 72.3382 87.9142C72.307 87.3038 71.7412 86.4038 71.7501 85.7266C73.0912 86.6667 72.9665 88.4355 72.3471 89.7766V89.781Z" fill="#4B2E22"/>
</g>
<defs>
<clipPath id="clip0_298_374">
<rect width="131.628" height="121.34" fill="white"/>
</clipPath>
</defs>
</svg>
